<?xml version="1.0" encoding="utf-8"?>
<!-- Generator: Adobe Illustrator 19.0.0, SVG Export Plug-In . SVG Version: 6.00 Build 0)  -->
<svg version="1.1" id="Layer_1" xmlns="http://www.w3.org/2000/svg" xmlns:xlink="http://www.w3.org/1999/xlink" x="0px" y="0px"
	 viewBox="0 0 1600 1000" style="enable-background:new 0 0 1600 1000;" xml:space="preserve">
<style type="text/css">
	.st0{fill:#C1292E;stroke:#FFFFFF;stroke-width:0.5;stroke-miterlimit:10;stroke-opacity:0;}
	.st1{fill:#4AAC4B;stroke:#FFFFFF;stroke-width:0.5;stroke-miterlimit:10;}
	.st2{fill:#010202;stroke:#FFFFFF;stroke-width:2;stroke-miterlimit:10;}
	.st3{fill:#1F3D8A;}
	.st4{fill:#FFCC07;}
	.st5{fill:#010202;}
	.st6{fill:none;}
	.st7{fill:#009245;}
</style>
<g>
	<g>
		<path class="st0" d="M295.6,454.8c-45.1,0-64.5,30.2-71.9,64h-10.9l-3-269.3h-99.1v457.7h98.2l4-50.6h10.9
			c3.5,29.7,20.8,55,65.9,55c61.5,0,103.6-48.6,103.6-128.4C393.3,503.9,357.6,454.8,295.6,454.8z M249,635.2
			c-30.7,0-33.2-35.2-33.2-52.1c0-36.2,14.9-52.1,36.2-52.1c18.3,0,36.2,15.4,36.2,52.1C288.2,620.9,270.3,635.2,249,635.2z"/>
		<path class="st0" d="M521.7,545h-10.9l-5.5-85.8h-85.8v247.9h100.1l2-69.9c1-29.3,8.4-83.8,54.5-83.8c11.9,0,24.3,3,31.2,4V456.8
			c-3.5-1-10.9-2-20.8-2C546,454.8,528.1,486.5,521.7,545z"/>
		<path class="st0" d="M792.4,509.8h-10.9c-3.5-29.7-20.8-55-65.9-55c-61.5,0-103.6,48.6-103.6,128.4c0,78.3,36.7,128.4,97.7,128.4
			c45.1,0,64.5-30.2,71.9-64h10.9l4,59.5h98.2V459.2h-98.2L792.4,509.8z M753.2,635.2c-17.4,0-36.2-16.4-36.2-52.1
			c0-37.7,17.8-52.1,39.2-52.1c30.7,0,33.2,35.2,33.2,52.1C789.4,619.4,774.5,635.2,753.2,635.2z"/>
		<path class="st0" d="M1106.7,459.2l-4,50.6h-10.9c-3.5-29.7-20.8-55-65.9-55c-61.5,0-103.6,48.6-103.6,128.4
			c0,79.3,35.7,128.4,97.7,128.4c45.1,0,64.5-30.2,71.9-64h10.9V662c0,42.9-7.7,66.5-21.4,79.2c-13,12.1-31.5,14.5-54,14.5
			c-0.6,0-1.2,0-1.8,0l22.9,31.4L1023,829l54.7-1.8c36.2-5.3,64.6-19.3,85.3-40.7c28.1-29.1,41.9-72,41.9-125.4V459.2H1106.7z
			 M1063.6,635.2c-18.3,0-36.2-15.4-36.2-52.1c0-37.7,17.8-52.1,39.2-52.1c30.7,0,33.2,35.2,33.2,52.1
			C1099.7,619.4,1084.9,635.2,1063.6,635.2z"/>
		<path class="st0" d="M1416.5,459.2l-4,50.6h-10.9c-3.5-29.7-20.8-55-65.9-55c-61.5,0-103.6,48.6-103.6,128.4
			c0,78.3,36.7,128.4,97.7,128.4c45.1,0,64.5-30.2,71.9-64h10.9l4,59.5h98.2V459.2H1416.5z M1373.4,635.2
			c-17.4,0-36.2-16.4-36.2-52.1c0-37.7,17.8-52.1,39.2-52.1c30.7,0,33.2,35.2,33.2,52.1C1409.6,619.4,1394.7,635.2,1373.4,635.2z"/>
	</g>
	<g>
		<path class="st1" d="M185.5,518.9h10.9c7.4-33.7,26.8-64,71.9-64c62,0,97.7,49.1,97.7,128.4c0,79.8-42.1,128.4-103.6,128.4
			c-45.1,0-62.5-25.3-65.9-55h-10.9l-4,50.6H83.3V249.5h99.1L185.5,518.9z M224.6,531.3c-21.3,0-36.2,15.9-36.2,52.1
			c0,16.9,2.5,52.1,33.2,52.1c21.3,0,39.2-14.4,39.2-52.1C260.8,546.6,243,531.3,224.6,531.3z"/>
		<path class="st1" d="M580.1,557.5c-6.9-1-19.3-4-31.2-4c-46.1,0-53.5,54.5-54.5,83.8l-2,69.9H392.2V459.4H478l5.5,85.8h10.9
			c6.4-58.5,24.3-90.2,64.9-90.2c9.9,0,17.4,1,20.8,2V557.5z"/>
		<path class="st1" d="M765,647.8h-10.9c-7.4,33.7-26.8,64-71.9,64c-61,0-97.7-50.1-97.7-128.4c0-79.8,42.1-128.4,103.6-128.4
			c45.1,0,62.5,25.3,65.9,55H765l4-50.6h98.2v247.9H769L765,647.8z M725.9,635.4c21.3,0,36.2-15.9,36.2-52.1
			c0-16.9-2.5-52.1-33.2-52.1c-21.3,0-39.2,14.4-39.2,52.1C689.7,619,708.5,635.4,725.9,635.4z"/>
		<path class="st1" d="M1075.4,647.8h-10.9c-7.4,33.7-26.8,64-71.9,64c-62,0-97.7-49.1-97.7-128.4c0-79.8,42.1-128.4,103.6-128.4
			c45.1,0,62.5,25.3,65.9,55h10.9l4-50.6h98.2v201.8c0,104.6-53,168.6-161.6,168.6c-19.8,0-39.7-2-65.9-5.9l1.5-73.9
			c19.3,4.5,32.7,5.9,48.6,5.9c46.1,0,75.4-9.9,75.4-93.7V647.8z M1036.2,635.4c21.3,0,36.2-15.9,36.2-52.1
			c0-16.9-2.5-52.1-33.2-52.1c-21.3,0-39.2,14.4-39.2,52.1C1000,620,1017.9,635.4,1036.2,635.4z"/>
		<path class="st1" d="M1385.2,647.8h-10.9c-7.4,33.7-26.8,64-71.9,64c-61,0-97.7-50.1-97.7-128.4c0-79.8,42.1-128.4,103.6-128.4
			c45.1,0,62.5,25.3,65.9,55h10.9l4-50.6h98.2v247.9h-98.2L1385.2,647.8z M1346.1,635.4c21.3,0,36.2-15.9,36.2-52.1
			c0-16.9-2.5-52.1-33.2-52.1c-21.3,0-39.2,14.4-39.2,52.1C1309.9,619,1328.7,635.4,1346.1,635.4z"/>
	</g>
</g>
<g>
	<path class="st2" d="M400,340.4c-3.9,21.9-20.1,44.8-54.2,44.8c-32.2,0-56-23.8-56-59.2c0-35.4,23.8-59.2,56-59.2
		c32.7,0,55.5,23.8,55.5,56.5H297.1c-0.5,30.9,18.7,54.9,48.7,54.9c28.6,0,43.2-19.4,47.3-37.7H400z M393.6,316.4
		c-3.4-22.6-20.1-42.5-47.8-42.5c-26.5,0-44.3,17.4-48.2,42.5H393.6z"/>
	<path class="st2" d="M526.8,274.6c-4.8-1.1-8-0.9-10.1-0.9c-33.8,0-48.2,49.4-48.7,81.4v28.1h-6.9V268.9h6.9V316
		c10.5-37,32.2-49.1,46.6-49.1c3.9,0,6.4-0.5,12.1,0.9V274.6z"/>
	<path class="st2" d="M661.7,354.1c-5,13.9-20.8,31.1-46.6,31.1c-34.7,0-53.3-25.6-53.3-59.2c0-31.8,21-59.2,56-59.2
		c19.2,0,36.3,9.8,43.9,26.1l0.2-24h6.6v114.3h-6.6L661.7,354.1z M615.9,378.6c30.9,0,46.9-29.3,46.9-52.6
		c0-32.9-19.7-52.6-46.4-52.6c-31.5,0-47.3,27.7-47.3,52.6C569.1,353.5,582.8,378.6,615.9,378.6z"/>
	<path class="st2" d="M811.6,300.7c0-20.8-23.5-27.7-36.3-27.7c-23.1,0-37,11.4-37,27.9c0,10.1,5.5,21.7,35.4,21.7
		c33.6,0,47.8,8.5,47.8,29c0,22.9-23.1,33.6-45.7,33.6c-28.6,0-49.4-14.9-49.4-43.4h6.4c0,24,17.6,37.3,42.3,37.3
		c23.3,0,39.3-10.5,39.3-27.2c0-11.9-7.8-22.9-35-22.9c-34.1,0-48.2-9.1-48.2-28.6c0-20.6,19.7-33.6,43.9-33.6c19,0,43,8,43,33.8
		H811.6z"/>
	<path class="st2" d="M887.9,268.9l-0.2,31.8c3.2-12.1,13.7-33.8,39.3-33.8c17.4,0,32,9.4,35.2,33.1c3.4-12.3,15.1-33.1,40-33.1
		c27.4,0,36.1,24.2,36.1,42.1l-0.2,74.3h-6.6v-72.2c0-24.2-11.7-37.3-30.6-37.3c-29.5,0-38.6,38.9-38.2,58.1l-0.2,51.4h-5.9v-72.2
		c0-22.4-9.6-36.6-28.6-37.3c-29.5-1.1-40.2,34.7-40.2,58.1l-0.2,51.4h-6.6V268.9H887.9z"/>
	<path class="st2" d="M1188,383.6v-36.3c-10.1,30.9-31.3,38.4-44.3,38.4c-8.9,0-38.9,1.6-37.7-47.3l1.1-69h6.9l-1.1,69
		c-0.7,26.3,8.7,40.5,29.9,40.5c37.3,0,45-48.7,45.3-70.4v-39.1h6.9v114.3H1188z"/>
	<path class="st2" d="M1339.8,300.7c0-20.8-23.5-27.7-36.3-27.7c-23.1,0-37,11.4-37,27.9c0,10.1,5.5,21.7,35.4,21.7
		c33.6,0,47.8,8.5,47.8,29c0,22.9-23.1,33.6-45.7,33.6c-28.6,0-49.4-14.9-49.4-43.4h6.4c0,24,17.6,37.3,42.3,37.3
		c23.3,0,39.3-10.5,39.3-27.2c0-11.9-7.8-22.9-35-22.9c-34.1,0-48.2-9.1-48.2-28.6c0-20.6,19.7-33.6,43.9-33.6c19,0,43,8,43,33.8
		H1339.8z"/>
	<path class="st2" d="M1447.9,329.7h-53.3v-7.5h53.3v-53.5h8v53.5h53.3v7.5h-53.3v53.5h-8V329.7z"/>
</g>
<g>
	<title>cofunded2</title>
	<g>
		<path class="st3" d="M343.6,89.2c10.2,0,18,4.9,17.6,16.5h-7.8c0-6.3-2.7-10-9.8-10c-6.7,0-10.3,4-10.3,14
			c0,9.5,3.3,13.8,10.2,13.8c5.6,0,9.2-3.6,14.2-9.2l5,5c-7.4,8.8-12.8,10.7-19.1,10.7c-10.1,0-18.2-5.6-18.2-20.4
			C325.3,95.7,332.8,89.2,343.6,89.2z"/>
		<path class="st3" d="M363.6,115c0-10.2,5.3-14.7,14.2-14.7c8.9,0,14.2,4.6,14.2,14.7s-5.3,14.8-14.2,14.8
			C369,129.8,363.6,125.2,363.6,115z M371.1,115c0,6.4,2,8.9,6.8,8.9c4.8,0,6.8-2.4,6.8-8.9s-2.1-8.8-6.8-8.8
			C373.1,106.2,371.1,108.6,371.1,115z"/>
		<path class="st3" d="M394.1,109.3h17v5.9h-17V109.3z"/>
		<path class="st3" d="M412.9,106.5v-5.8h3.4c0.1-7,1.1-11,9.4-10.9l5.4,0.1v5.6h-3c-4.5,0-4.7,1.8-4.7,5.2h7v5.8h-7v22.9h-7.1
			v-22.9H412.9z"/>
		<path class="st3" d="M432.6,119.2v-18.6h7.1v16.9c0,2.9,0.7,5.5,3.4,5.5c4.6,0,7.1-3.8,8.1-7v-15.5h7.1v28.7h-6.9l-0.3-6.6h-0.7
			c-1.2,4.6-4.9,7-9.3,7C434.6,129.8,432.6,124.9,432.6,119.2z"/>
		<path class="st3" d="M470.8,100.7l0.2,6.6h0.7c1.2-4.6,4.9-7,9.4-7c6.6,0,8.6,4.9,8.6,10.6v18.6h-7.1v-16.9c0-2.9-0.6-5.5-3.4-5.5
			c-4.6,0-7,4.1-8.1,7.4v15.1h-7.1v-28.7H470.8z"/>
		<path class="st3" d="M504.5,100.2c4.7,0,7.2,2.3,8.2,5.7h0.7V89.9h7.1v39.5h-7.1v-4.8c-2.8,2.7-6.1,5.2-9.8,5.2
			c-8.5,0-10.1-8.1-10.1-14.6C493.5,108.2,495.9,100.2,504.5,100.2z M505,123.4c2.8,0,5.9-3,8.4-5.9v-5.7c-1.5-3.1-3.7-5.1-6.9-5.1
			c-5,0-5.9,4.3-5.9,8.5C500.6,118.6,501,123.4,505,123.4L505,123.4z"/>
		<path class="st3" d="M538.4,100.2c11.4,0,13.2,8.8,12.2,16.4h-19.1c0.3,5.6,2.4,7.5,6.8,7.5c3.5,0,5.6-0.9,8.7-4.2l4.2,4.1
			c-4.5,4.8-8.3,5.9-13,5.9c-7.9,0-13.8-4.1-13.8-14.9S530.4,100.2,538.4,100.2z M531.6,112h12.7c-0.3-4.5-1.8-6.3-6.1-6.3
			S532.2,107.4,531.6,112z"/>
		<path class="st3" d="M564.5,100.2c4.7,0,7.2,2.3,8.2,5.7h0.7V89.9h7.1v39.5h-7.1v-4.8c-2.8,2.7-6.1,5.2-9.8,5.2
			c-8.5,0-10.1-8.1-10.1-14.6C553.5,108.2,556,100.2,564.5,100.2z M565,123.4c2.8,0,5.9-3,8.4-5.9v-5.7c-1.5-3.1-3.7-5.1-6.9-5.1
			c-5,0-5.9,4.3-5.9,8.5C560.7,118.6,561,123.4,565,123.4z"/>
		<path class="st3" d="M597.1,129.4V89.9h7.1v15.5c2.8-2.7,6.1-5.2,9.8-5.2c8.5,0,10.1,8.2,10.1,14.7c0,7-2.3,15-10.6,15
			c-5,0-7.5-2.4-8.6-5.9h-0.7l0-0.2l-0.2,5.7L597.1,129.4z M604.2,118c1.5,3.1,3.8,5.3,7.2,5.3c4.8,0,5.5-4.3,5.5-8.5
			c0-3.1-0.3-8.2-4.3-8.2c-2.8,0-5.9,3-8.4,5.9L604.2,118z"/>
		<path class="st3" d="M624.6,100.7h7.6l4.2,12.5c1.1,3.3,1.9,6.6,2.5,10h0.7c0.6-3.3,1.5-6.6,2.7-9.8l4.2-12.7h7.1l-11.1,31.1
			c-3,8.3-6.2,10.2-12.5,10.2h-2.5v-6.4h2.1c3.3,0,4.8-0.2,7-5.8H635L624.6,100.7z"/>
	</g>
	<g>
		<path class="st3" d="M324.7,165.7h3.8l0.2-7.4h6.9v7.4h6.8v5.8h-6.7v11.1c0,3.8,0.5,5.7,4.8,5l2.2-0.4l1.1,5.8
			c-2.2,0.8-4.5,1.3-6.8,1.4c-7.5,0-8.6-4.9-8.6-13.3v-9.6h-3.8L324.7,165.7z"/>
		<path class="st3" d="M346.7,154.9h7.1v17.4h0.7c1-4.3,5-7.2,9.4-7c6.6,0,8.6,4.9,8.6,10.6v18.6h-7.1v-16.9c0-2.9-0.6-5.5-3.4-5.5
			c-4.6,0-7,4.2-8.1,7.6v14.8h-7.1L346.7,154.9z"/>
		<path class="st3" d="M389.7,165.3c11.4,0,13.2,8.8,12.2,16.4h-19.1c0.3,5.6,2.4,7.5,6.8,7.5c3.5,0,5.6-0.9,8.7-4.2l4.2,4.1
			c-4.5,4.8-8.3,5.9-13,5.9c-7.9,0-13.8-4.1-13.8-14.9C375.7,169.2,381.7,165.3,389.7,165.3z M382.9,177h12.7
			c-0.3-4.5-1.8-6.3-6.1-6.3S383.5,172.4,382.9,177L382.9,177z"/>
		<path class="st3" d="M444.8,154.9v6.6h-19.6v9.6h18.2v6.3h-18.3v10.5h20.7v6.6h-28.3v-39.6H444.8z"/>
		<path class="st3" d="M448.9,184.3v-18.6h7.1v16.9c0,2.9,0.7,5.5,3.4,5.5c4.6,0,7.1-3.8,8.1-7v-15.5h7.1v28.7h-6.9l-0.3-6.6h-0.7
			c-1.2,4.6-4.9,7-9.3,7C450.8,194.9,448.9,189.9,448.9,184.3z"/>
		<path class="st3" d="M487.2,165.7l0.1,6.2v0.3h0.7c0.9-4.1,4.5-7,8.7-7c0.8-0.1,1.7,0.1,2.4,0.4v6.3h-3.3c-4.9,0-7.5,4.2-8.5,7.5
			v15h-7.1v-28.7H487.2z"/>
		<path class="st3" d="M498.8,180c0-10.2,5.3-14.7,14.2-14.7c8.9,0,14.2,4.6,14.2,14.7s-5.3,14.8-14.2,14.8
			C504.1,194.9,498.8,190.3,498.8,180z M506.2,180c0,6.4,2,8.9,6.8,8.9c4.8,0,6.8-2.4,6.8-8.9s-2.1-8.8-6.8-8.8
			C508.3,171.2,506.2,173.6,506.2,180L506.2,180z"/>
		<path class="st3" d="M530.8,208v-42.3h7.1v4.7c2.8-2.7,6.1-5.2,9.8-5.2c8.5,0,10.1,8.2,10.1,14.7c0,7-2.3,15-10.6,15
			c-5,0-7.5-2.4-8.6-5.9h-0.7v19H530.8z M537.9,183.2c1.5,3,3.9,5.3,7.2,5.3c4.8,0,5.5-4.3,5.5-8.5c0-3.1-0.4-8.2-4.4-8.2
			c-2.8,0-5.8,2.9-8.4,5.9V183.2z"/>
		<path class="st3" d="M574.3,165.3c11.4,0,13.2,8.8,12.2,16.4h-19.1c0.3,5.6,2.4,7.5,6.8,7.5c3.5,0,5.6-0.9,8.7-4.2l4.2,4.1
			c-4.5,4.8-8.3,5.9-13,5.9c-7.9,0-13.8-4.1-13.8-14.9C560.3,169.2,566.3,165.3,574.3,165.3z M567.5,177h12.7
			c-0.3-4.5-1.8-6.3-6.1-6.3S568.1,172.4,567.5,177z"/>
		<path class="st3" d="M599.5,177.1h8.6l0.1-2.4c0.1-3-2.1-3.8-4.7-3.8c-3.8,0-7.5,2.1-10.8,4l-3-4.5c4.9-3.3,9.7-5.3,15-5.3
			c6.1,0.1,10.6,2.7,10.6,9.5l0.1,11.4c0,2.2,0.5,2.5,2,2.5h0.4v6c-1,0.1-2.1,0.2-3.1,0.2h-1.2c-3.6,0-5-2.2-4.7-5.9V188h-0.7
			c-2.2,5.6-6.3,6.8-10,6.8c-5.1,0-8.9-4.7-8.9-8.9C589.1,178.8,595.8,177.1,599.5,177.1z M599.7,188.8c2.1,0,5.3-1.2,8.3-5.3v-1.8
			h-7.3c-3,0-4.7,1.6-4.7,3.6C596.1,187.3,597.8,188.8,599.7,188.8L599.7,188.8z"/>
		<path class="st3" d="M628.2,165.7l0.2,6.6h0.7c1.2-4.6,4.9-7,9.4-7c6.6,0,8.6,4.9,8.6,10.6v18.6h-7.1v-16.9c0-2.9-0.6-5.5-3.4-5.5
			c-4.6,0-7,4.1-8.1,7.4v15.1h-7.1v-28.7H628.2z"/>
		<path class="st3" d="M670.1,154.9v19.7c0,8.9,1.3,13.4,9.1,13.4c7.8,0,9-4.5,9-13.4v-19.7h7.3v19.6c0,15.4-5.9,20.4-16.6,20.4
			c-10.7,0-16.5-5-16.5-20.4v-19.6H670.1z"/>
		<path class="st3" d="M707.7,165.7l0.2,6.6h0.7c1.2-4.6,4.9-7,9.4-7c6.6,0,8.6,4.9,8.6,10.6v18.6h-7.1v-16.9c0-2.9-0.6-5.5-3.4-5.5
			c-4.6,0-7,4.1-8.1,7.4v15.1h-7.1v-28.7H707.7z"/>
		<path class="st3" d="M731.6,154.9h7.5v5.9h-7.5V154.9z M731.8,165.7h7.1v28.7h-7.1V165.7z"/>
		<path class="st3" d="M742.7,180c0-10.2,5.3-14.7,14.2-14.7c8.9,0,14.2,4.6,14.2,14.7s-5.3,14.8-14.2,14.8
			C748.1,194.9,742.7,190.3,742.7,180z M750.2,180c0,6.4,2,8.9,6.8,8.9c4.8,0,6.8-2.4,6.8-8.9s-2.1-8.8-6.8-8.8
			C752.2,171.2,750.2,173.6,750.2,180z"/>
		<path class="st3" d="M781.7,165.7l0.2,6.6h0.7c1.2-4.6,4.9-7,9.4-7c6.6,0,8.6,4.9,8.6,10.6v18.6h-7.1v-16.9c0-2.9-0.6-5.5-3.4-5.5
			c-4.6,0-7,4.1-8.1,7.4v15.1h-7.1v-28.7H781.7z"/>
	</g>
	<rect x="83.3" y="84.1" class="st3" width="181.7" height="121.1"/>
	<g id="s_1_">
		<g id="c_1_">
			<path id="t_1_" class="st4" d="M174.2,97.5l-2.1,6.4l3.2,1L174.2,97.5z"/>
			<path class="st4" d="M174.2,97.5l2.1,6.4l-3.2,1.1L174.2,97.5z"/>
		</g>
		<g id="a_1_">
			<path class="st4" d="M180.6,102.2h-6.7v3.4L180.6,102.2z"/>
			<path class="st4" d="M180.6,102.2l-5.4,4l-2-2.7L180.6,102.2z"/>
			<path class="st4" d="M178.1,109.7l-2.1-6.4l-3.2,1L178.1,109.7z"/>
			<path class="st4" d="M178.1,109.7l-5.4-4l2-2.7L178.1,109.7z"/>
		</g>
		<path class="st4" d="M167.8,102.2h6.7v3.4L167.8,102.2z"/>
		<path class="st4" d="M167.8,102.2l5.4,4l2-2.7L167.8,102.2z"/>
		<path class="st4" d="M170.2,109.7l2-6.4l3.2,1L170.2,109.7z"/>
		<path class="st4" d="M170.2,109.7l5.4-4l-2-2.7L170.2,109.7z"/>
	</g>
	<path class="st4" d="M174.2,178.3l-2.1,6.4l3.2,1L174.2,178.3z"/>
	<path class="st4" d="M174.2,178.3l2.1,6.4l-3.2,1L174.2,178.3z"/>
	<path class="st4" d="M180.6,182.9h-6.7v3.4L180.6,182.9z"/>
	<path class="st4" d="M180.6,182.9l-5.4,4l-2-2.7L180.6,182.9z"/>
	<path class="st4" d="M178.1,190.5l-2.1-6.4l-3.2,1L178.1,190.5z"/>
	<path class="st4" d="M178.1,190.5l-5.4-4l2-2.7L178.1,190.5z"/>
	<path class="st4" d="M167.8,182.9h6.7v3.4L167.8,182.9z"/>
	<path class="st4" d="M167.8,182.9l5.4,4l2-2.7L167.8,182.9z"/>
	<path class="st4" d="M170.2,190.5l2.1-6.4l3.2,1L170.2,190.5z"/>
	<path class="st4" d="M170.2,190.5l5.4-4l-2-2.7L170.2,190.5z"/>
	<g id="l_1_">
		<path class="st4" d="M133.8,137.9l-2.1,6.4l3.2,1L133.8,137.9z"/>
		<path class="st4" d="M133.8,137.9l2.1,6.4l-3.2,1L133.8,137.9z"/>
		<path class="st4" d="M140.2,142.6h-6.7v3.4L140.2,142.6z"/>
		<path class="st4" d="M140.2,142.6l-5.4,4l-2-2.7L140.2,142.6z"/>
		<path class="st4" d="M137.8,150.1l-2.1-6.4l-3.2,1L137.8,150.1z"/>
		<path class="st4" d="M137.8,150.1l-5.5-4l2-2.7L137.8,150.1z"/>
		<path class="st4" d="M127.4,142.6h6.7v3.4L127.4,142.6z"/>
		<path class="st4" d="M127.4,142.6l5.4,4l2-2.7L127.4,142.6z"/>
		<path class="st4" d="M129.8,150.1l2.1-6.4l3.2,1L129.8,150.1z"/>
		<path class="st4" d="M129.8,150.1l5.5-4l-2-2.7L129.8,150.1z"/>
		<path class="st4" d="M150,115.1l5.4-4l-2-2.7L150,115.1z"/>
		<path class="st4" d="M150,115.1l2.1-6.4l3.2,1L150,115.1z"/>
		<path class="st4" d="M147.6,107.6l5.4,4l2-2.7L147.6,107.6z"/>
		<path class="st4" d="M147.6,107.6h6.7v3.4L147.6,107.6z"/>
		<path class="st4" d="M154,102.9l-2.1,6.4l3.2,1L154,102.9z"/>
		<path class="st4" d="M154,102.9l2.1,6.4l-3.2,1L154,102.9z"/>
		<path class="st4" d="M157.9,115.1l-5.4-4l2-2.7L157.9,115.1z"/>
		<path class="st4" d="M157.9,115.1l-2.1-6.4l-3.2,1L157.9,115.1z"/>
		<path class="st4" d="M160.4,107.6l-5.5,4l-2-2.7L160.4,107.6z"/>
		<path class="st4" d="M160.4,107.6h-6.7v3.4L160.4,107.6z"/>
		<path class="st4" d="M143.2,129.9l-2.1-6.4l-3.2,1L143.2,129.9z"/>
		<path class="st4" d="M143.2,129.9l-5.4-4l2-2.7L143.2,129.9z"/>
		<path class="st4" d="M135.3,129.9l5.4-4l-2-2.7L135.3,129.9z"/>
		<path class="st4" d="M135.3,129.9l2.1-6.4l3.2,1L135.3,129.9z"/>
		<path class="st4" d="M132.8,122.4l5.4,4l2-2.7L132.8,122.4z"/>
		<path class="st4" d="M132.8,122.4h6.7v3.4L132.8,122.4z"/>
		<path class="st4" d="M145.6,122.4l-5.4,4l-2-2.7L145.6,122.4z"/>
		<path class="st4" d="M145.6,122.4h-6.7v3.4L145.6,122.4z"/>
		<path class="st4" d="M139.2,117.7l2.1,6.4l-3.2,1L139.2,117.7z"/>
		<path class="st4" d="M139.2,117.7l-2.1,6.4l3.2,1L139.2,117.7z"/>
		<path class="st4" d="M145.6,162.7h-6.7v3.4L145.6,162.7z"/>
		<path class="st4" d="M145.6,162.7l-5.4,4l-2-2.7L145.6,162.7z"/>
		<path class="st4" d="M143.2,170.3l-2.1-6.4l-3.2,1L143.2,170.3z"/>
		<path class="st4" d="M143.2,170.3l-5.4-4l2-2.7L143.2,170.3z"/>
		<path class="st4" d="M135.3,170.3l5.4-4l-2-2.7L135.3,170.3z"/>
		<path class="st4" d="M135.3,170.3l2.1-6.4l3.2,1L135.3,170.3z"/>
		<path class="st4" d="M139.2,158.1l2.1,6.4l-3.2,1.1L139.2,158.1z"/>
		<path class="st4" d="M139.2,158.1l-2.1,6.4l3.2,1L139.2,158.1z"/>
		<path class="st4" d="M132.8,162.7h6.7v3.4L132.8,162.7z"/>
		<path class="st4" d="M132.8,162.7l5.4,4l2-2.7L132.8,162.7z"/>
		<path class="st4" d="M160.4,177.5h-6.7v3.4L160.4,177.5z"/>
		<path class="st4" d="M160.4,177.5l-5.5,4l-2-2.7L160.4,177.5z"/>
		<path class="st4" d="M157.9,185l-2.1-6.4l-3.2,1L157.9,185z"/>
		<path class="st4" d="M157.9,185l-5.4-4l2-2.7L157.9,185z"/>
		<path class="st4" d="M150,185l5.4-4l-2-2.7L150,185z"/>
		<path class="st4" d="M150,185l2.1-6.4l3.2,1L150,185z"/>
		<path class="st4" d="M154,172.9l2.1,6.4l-3.2,1L154,172.9z"/>
		<path class="st4" d="M154,172.9l-2.1,6.4l3.2,1L154,172.9z"/>
		<path class="st4" d="M147.6,177.5h6.7v3.4L147.6,177.5z"/>
		<path class="st4" d="M147.6,177.5l5.4,4l2-2.7L147.6,177.5z"/>
	</g>
	<path class="st4" d="M214.5,137.9l2.1,6.4l-3.2,1L214.5,137.9z"/>
	<path class="st4" d="M214.5,137.9l-2.1,6.4l3.2,1L214.5,137.9z"/>
	<path class="st4" d="M208.2,142.6h6.7v3.4L208.2,142.6z"/>
	<path class="st4" d="M208.2,142.6l5.4,4l2-2.7L208.2,142.6z"/>
	<path class="st4" d="M210.6,150.1l2.1-6.4l3.2,1L210.6,150.1z"/>
	<path class="st4" d="M210.6,150.1l5.4-4l-2-2.7L210.6,150.1z"/>
	<path class="st4" d="M220.9,142.6h-6.7v3.4L220.9,142.6z"/>
	<path class="st4" d="M220.9,142.6l-5.5,4l-2-2.7L220.9,142.6z"/>
	<path class="st4" d="M218.5,150.1l-2.1-6.4l-3.2,1L218.5,150.1z"/>
	<path class="st4" d="M218.5,150.1l-5.4-4l2-2.7L218.5,150.1z"/>
	<path class="st4" d="M198.3,115.1l-5.5-4l2-2.7L198.3,115.1z"/>
	<path class="st4" d="M198.3,115.1l-2.1-6.4l-3.2,1L198.3,115.1z"/>
	<path class="st4" d="M200.8,107.6l-5.4,4l-2-2.7L200.8,107.6z"/>
	<path class="st4" d="M200.8,107.6H194v3.4L200.8,107.6z"/>
	<path class="st4" d="M194.4,102.9l2.1,6.4l-3.2,1L194.4,102.9z"/>
	<path class="st4" d="M194.4,102.9l-2.1,6.4l3.2,1L194.4,102.9z"/>
	<path class="st4" d="M190.4,115.1l5.5-4l-2-2.7L190.4,115.1z"/>
	<path class="st4" d="M190.4,115.1l2.1-6.4l3.2,1L190.4,115.1z"/>
	<path class="st4" d="M188,107.6l5.4,4l2-2.7L188,107.6z"/>
	<path class="st4" d="M188,107.6h6.7v3.4L188,107.6z"/>
	<path class="st4" d="M205.2,129.9l2.1-6.4l3.2,1L205.2,129.9z"/>
	<path class="st4" d="M205.2,129.9l5.4-4l-2-2.7L205.2,129.9z"/>
	<path class="st4" d="M213.1,129.9l-5.4-4l2-2.7L213.1,129.9z"/>
	<path class="st4" d="M213.1,129.9l-2.1-6.4l-3.2,1L213.1,129.9z"/>
	<path class="st4" d="M215.5,122.4l-5.4,4l-2-2.7L215.5,122.4z"/>
	<path class="st4" d="M215.5,122.4h-6.8v3.4L215.5,122.4z"/>
	<path class="st4" d="M202.7,122.4l5.4,4l2-2.7L202.7,122.4z"/>
	<path class="st4" d="M202.7,122.4h6.7v3.4L202.7,122.4z"/>
	<path class="st4" d="M209.1,117.7l-2.1,6.4l3.2,1L209.1,117.7z"/>
	<path class="st4" d="M209.1,117.7l2.1,6.4l-3.2,1L209.1,117.7z"/>
	<path class="st4" d="M202.7,162.7h6.7v3.4L202.7,162.7z"/>
	<path class="st4" d="M202.7,162.7l5.4,4l2-2.7L202.7,162.7z"/>
	<path class="st4" d="M205.2,170.3l2.1-6.4l3.2,1L205.2,170.3z"/>
	<path class="st4" d="M205.2,170.3l5.4-4l-2-2.7L205.2,170.3z"/>
	<path class="st4" d="M213.1,170.3l-5.4-4l2-2.7L213.1,170.3z"/>
	<path class="st4" d="M213.1,170.3l-2.1-6.4l-3.2,1L213.1,170.3z"/>
	<path class="st4" d="M209.1,158.1l-2.1,6.4l3.2,1L209.1,158.1z"/>
	<path class="st4" d="M209.1,158.1l2.1,6.4l-3.2,1.1L209.1,158.1z"/>
	<path class="st4" d="M215.5,162.7h-6.8v3.4L215.5,162.7z"/>
	<path class="st4" d="M215.5,162.7l-5.4,4l-2-2.7L215.5,162.7z"/>
	<path class="st4" d="M188,177.5h6.7v3.4L188,177.5z"/>
	<path class="st4" d="M188,177.5l5.4,4l2-2.7L188,177.5z"/>
	<path class="st4" d="M190.4,185l2.1-6.4l3.2,1L190.4,185z"/>
	<path class="st4" d="M190.4,185l5.5-4l-2-2.7L190.4,185z"/>
	<path class="st4" d="M198.3,185l-5.5-4l2-2.7L198.3,185z"/>
	<path class="st4" d="M198.3,185l-2.1-6.4l-3.2,1L198.3,185z"/>
	<path class="st4" d="M194.4,172.9l-2.1,6.4l3.2,1L194.4,172.9z"/>
	<path class="st4" d="M194.4,172.9l2.1,6.4l-3.2,1L194.4,172.9z"/>
	<path class="st4" d="M200.8,177.5H194v3.4L200.8,177.5z"/>
	<path class="st4" d="M200.8,177.5l-5.4,4l-2-2.7L200.8,177.5z"/>
</g>
<g>
	<g>
		<path class="st5" d="M881.9,123c-1.5,1-4.8,2.1-8.3,2.1c-11.2,0-16.7-7.2-16.7-16.3c0-9.7,6.3-16.2,16.4-16.2c3.5,0,7.2,1,8.5,1.7
			v4.3c-1.5-0.8-4.3-1.8-7.7-1.8c-7.4,0-11.8,4.8-11.8,12c0,7.2,4.4,12.1,11.5,12.1c4.4,0,6.7-1.8,8-2.6V123z"/>
		<path class="st5" d="M891.1,101h0.4c1.3-4,5-8.4,11.6-8.4c8.8,0,14,7,14,16.3c0,9.2-5.7,16.2-14.7,16.2c-5.4,0-9.3-2.9-10.9-7.2
			h-0.4l-0.1,21.6h-5.3V93.2h5.3L891.1,101z M901.2,97c-6.6,0-10.2,6.1-10.2,11.9c0,6.8,3.8,11.9,10,11.9c6.8,0,10.5-5.8,10.5-11.9
			C911.5,102.5,908,97,901.2,97z"/>
		<path class="st5" d="M950.4,112.8c-1.3,6.7-6.3,12.3-15.6,12.3c-9.6,0-16.2-6.5-16.2-16.2c0-9.7,6.6-16.3,16.2-16.3
			c9.7,0,16,6.3,16,16.1h-26.5c0,7.1,4.1,12.2,10.5,12.2c6,0,9.1-4,10.1-8H950.4z M945.1,106.1c-0.9-5.1-4.5-9.2-10.3-9.2
			c-5.6,0-9.4,3.6-10.4,9.2H945.1z"/>
		<path class="st5" d="M958.5,98v-4.8h22v27.4h5.5v2.8l-0.4,10.2h-3.5v-9h-29l-0.4,9h-3.5v-12.9h4C956,118.1,958.5,113.8,958.5,98z
			 M975.1,120.6V97.2h-11.9v1.8c0,12.1-2.1,18.3-5,21.3v0.4H975.1z"/>
		<path class="st5" d="M988.5,93.2h5.4v12h14.4v-12h5.4V105h2.2c10.8,0,14.7,3.5,14.7,9.8c0,6.3-4.4,9.8-14.7,9.8h-7.6v-15.4h-14.4
			v15.4h-5.4V93.2z M1015.9,121.1c7.2,0,9.3-2.6,9.3-6.3c0-3.7-2.2-6.3-9.3-6.3h-2.2v12.5H1015.9z"/>
		<path class="st5" d="M1056.9,116.7h-0.4c-1.3,4-5,8.4-11.6,8.4c-8.9,0-13.9-6.8-13.9-16.2c0-9.2,5.7-16.3,14.7-16.3
			c5.4,0,9.3,2.9,10.9,7.1h0.4l0.2-6.5h5.2v31.4h-5.2L1056.9,116.7z M1046.8,120.8c6.6,0,10.2-6.1,10.2-11.9c0-6.8-3.8-11.9-10-11.9
			c-6.8,0-10.4,5.7-10.4,11.9C1036.6,115.4,1039.9,120.8,1046.8,120.8z"/>
		<path class="st5" d="M1086.5,97.4h-10.8v-4.3h27v4.3h-10.8v27.1h-5.4V97.4z"/>
		<path class="st5" d="M1132.8,112.8c-1.3,6.7-6.3,12.3-15.6,12.3c-9.6,0-16.2-6.5-16.2-16.2c0-9.7,6.6-16.3,16.2-16.3
			c9.7,0,16,6.3,16,16.1h-26.5c0,7.1,4.1,12.2,10.5,12.2c6,0,9.1-4,10.1-8H1132.8z M1127.4,106.1c-0.9-5.1-4.5-9.2-10.3-9.2
			c-5.6,0-9.4,3.6-10.4,9.2H1127.4z"/>
		<path class="st5" d="M1138.9,93.2c3.3,4.6,4.8,7.1,7.8,11.9h0.4c2.9-4.8,4.6-7.3,7.8-11.9h5.8l-10,14.5l12.2,16.9h-6.4
			c-3.8-5.5-5.9-8.2-9.3-13.7h-0.4c-3.5,5.4-5.4,8.2-9.4,13.7h-5.8l11.7-16.4l-10.6-14.9H1138.9z"/>
		<path class="st5" d="M1165.3,93.2h5.4v12.9h15.7V93.2h5.4v31.4h-5.4v-14.5h-15.7v14.5h-5.4V93.2z"/>
		<path class="st5" d="M1199.2,93.2h5.4v20.1l15.7-15v-5.1h5.4v31.4h-5.4v-21l-15.7,15v6h-5.4V93.2z"/>
		<path class="st5" d="M1251.9,124.6l-0.1-12.1c-1.7,0.7-5.5,1.8-8.8,1.8c-7.5,0-12.4-3.1-12-15.1l0.2-6h5.3l-0.1,6
			c-0.1,8.3,2.3,10.8,7.8,10.8c2.6,0,4.9-0.6,7.5-1.7l0.1-15.1h5.3v31.4H1251.9z"/>
		<path class="st5" d="M1264.6,93.2h5.3l0.1,15.4v15.9h-5.4V93.2z M1290.9,93.2l-12.5,15.2l14.9,16.2h-6.7l-14.2-15.7l12.4-15.7
			H1290.9z"/>
		<path class="st5" d="M1316.9,116.7h-0.4c-1.3,4-5,8.4-11.6,8.4c-8.9,0-13.9-6.8-13.9-16.2c0-9.2,5.7-16.3,14.7-16.3
			c5.4,0,9.3,2.9,10.9,7.1h0.4l0.2-6.5h5.2v31.4h-5.2L1316.9,116.7z M1306.8,120.8c6.6,0,10.2-6.1,10.2-11.9c0-6.8-3.8-11.9-10-11.9
			c-6.8,0-10.4,5.7-10.4,11.9C1296.6,115.4,1299.9,120.8,1306.8,120.8z"/>
		<path class="st5" d="M1365.4,120.6h13.1V93.2h5.3l0.1,31.4h-42.6V93.2h5.3l0.1,27.4h13.1V93.2h5.3L1365.4,120.6z"/>
		<path class="st5" d="M1391.3,93.2h5.3l0.1,15.4v15.9h-5.4V93.2z M1417.6,93.2l-12.5,15.2l14.9,16.2h-6.7l-14.2-15.7l12.4-15.7
			H1417.6z"/>
		<path class="st5" d="M1433.8,92.6c9.6,0,16.1,6.5,16.1,16.2c0,9.7-6.5,16.3-16.1,16.3c-9.6,0-16.2-6.6-16.2-16.3
			C1417.6,99.1,1424.2,92.6,1433.8,92.6z M1433.8,120.9c6.3,0,10.5-5,10.5-12.1c0-7-4.1-12-10.5-12c-6.4,0-10.5,5-10.5,12
			C1423.3,115.9,1427.4,120.9,1433.8,120.9z"/>
		<path class="st5" d="M1473.3,97.2h-12.9v0.6c0,15.3-0.5,27-8.4,27c-0.6,0-1.2-0.1-1.8-0.2v-4c4.5-0.2,5.3-7.9,5.3-23.6v-3.8h23.2
			v31.4h-5.4V97.2z"/>
		<path class="st5" d="M1509,116.7h-0.4c-1.3,4-5,8.4-11.6,8.4c-8.9,0-13.9-6.8-13.9-16.2c0-9.2,5.7-16.3,14.7-16.3
			c5.4,0,9.3,2.9,10.9,7.1h0.4l0.2-6.5h5.2v31.4h-5.2L1509,116.7z M1498.9,120.8c6.6,0,10.2-6.1,10.2-11.9c0-6.8-3.8-11.9-10-11.9
			c-6.8,0-10.4,5.7-10.4,11.9C1488.7,115.4,1492,120.8,1498.9,120.8z"/>
	</g>
	<g>
		<path class="st5" d="M1286,187c-1.8,1.4-6.4,2.8-10.1,2.8c-14.3,0-20.2-9.6-20.2-20.6c0-12.4,7.9-20.6,20.3-20.6
			c4.3,0,9.2,1.5,10,2.2v2.4c-1.8-1-5.8-2.4-10.3-2.4c-11.1,0-17.7,7.6-17.7,18.4c0,10.8,6.5,18.4,17.1,18.4c6.7,0,9.6-2.5,10.8-2.9
			V187z"/>
		<path class="st5" d="M1307.7,148.5c11.2,0,19.5,8.3,19.5,20.6c0,12.4-8.3,20.6-19.5,20.6c-11.2,0-19.5-8.3-19.5-20.6
			C1288.2,156.8,1296.5,148.5,1307.7,148.5z M1307.7,187.5c10.2,0,17-8,17-18.4s-6.8-18.4-17-18.4s-17,8-17,18.4
			S1297.5,187.5,1307.7,187.5z"/>
		<path class="st5" d="M1355.7,189c-8.7-21.1-11.6-26.7-15.5-36.1c-1.5,9.9-3.1,18.3-5.9,36.1h-2.5l6.5-39.8h3
			c5.7,14.1,10.3,23.7,15.9,37c5.4-13.1,10.4-23.3,16.8-37h2.9l5.9,39.8h-2.4c-2.6-16.3-3.7-24.4-5.6-36.1
			c-4.7,10.4-7.5,16-16.3,36.1H1355.7z"/>
		<path class="st5" d="M1401.2,149.3c-5.9-1.5-9.8-4.9-9.8-9.7c0-7.2,6-10,14.3-10h16.1l-0.9,2.2h-13.6c-10.5,0-13.5,3.3-13.5,7.2
			c0,3.9,1.8,7.9,17.5,9.8c9.1,1.9,15.4,8.2,15.4,20.4c0,12.4-7.9,20.6-19.1,20.6c-11.2,0-19.1-8.3-19.1-20.6
			C1388.5,160.7,1392.7,152.5,1401.2,149.3z M1407.6,187.5c10.8,0,16.6-8,16.6-18.4s-5.7-18.4-16.4-18.4c-10.7,0-16.7,8-16.7,18.4
			S1396.9,187.5,1407.6,187.5z"/>
		<path class="st5" d="M1450.1,148.5c11.2,0,19.5,8.3,19.5,20.6c0,12.4-8.3,20.6-19.5,20.6c-11.2,0-19.5-8.3-19.5-20.6
			C1430.6,156.8,1438.9,148.5,1450.1,148.5z M1450.1,187.5c10.2,0,17-8,17-18.4s-6.8-18.4-17-18.4s-17,8-17,18.4
			S1439.9,187.5,1450.1,187.5z"/>
		<path class="st5" d="M1479.9,159.3c1.8-4.9,7.3-10.8,16.3-10.8c11.7,0,18.6,9.3,18.6,20.6c0,11.1-7.3,20.6-19.5,20.6
			c-6.7,0-12.7-3.4-15.3-9.2l0.1,27.4h-2.5v-58.8h2.4V159.3z M1495.8,150.8c-10.7,0-16.3,10.1-16.3,18.3c0,11.5,6.9,18.3,16.2,18.3
			c11,0,16.5-9.6,16.5-18.3C1512.2,159.9,1507,150.8,1495.8,150.8z"/>
	</g>
</g>
<g>
	<g>
		<g>
			<polygon class="st5" points="83.3,807.3 85.4,807.3 85.4,768.8 113.6,768.8 113.6,807.3 115.7,807.3 115.7,766.9 83.3,766.9 			
				"/>
		</g>
		<g>
			<path class="st6" d="M146.4,768.8c-10.6,0-16.3,10.1-16.3,18.2c0,11.4,6.8,18.2,16.1,18.2c10.9,0,16.4-9.6,16.4-18.2
				C162.6,778,157.5,768.8,146.4,768.8z"/>
			<path class="st5" d="M146.7,766.5c-9,0-14.4,5.9-16.2,10.8v-10.1h-2.4v58.5h2.5l-0.1-27.3c2.6,5.7,8.6,9.1,15.2,9.1
				c12.1,0,19.4-9.5,19.4-20.5C165.2,775.8,158.4,766.5,146.7,766.5z M146.2,805.3c-9.3,0-16.1-6.8-16.1-18.2
				c0-8.2,5.6-18.2,16.3-18.2c11.1,0,16.3,9.1,16.3,18.2C162.6,795.7,157.2,805.3,146.2,805.3z"/>
		</g>
		<g>
			<path class="st6" d="M193.9,769c-9.2,0-15.4,6-16.7,14.8h33.3C209.3,775.9,203.5,769,193.9,769z"/>
			<path class="st5" d="M193.9,766.5c-11.2,0-19.4,8.3-19.4,20.5c0,12.3,8.3,20.5,19.4,20.5c11.8,0,17.5-7.9,18.8-15.5h-2.4
				c-1.4,6.3-6.5,13.1-16.4,13.1c-10.4,0-17.1-8.3-16.9-19h36.2C213.2,774.8,205.3,766.5,193.9,766.5z M193.9,769
				c9.6,0,15.4,6.9,16.6,14.8h-33.3C178.5,775,184.7,769,193.9,769z"/>
		</g>
		<g>
			<rect x="224.2" y="767.3" class="st5" width="2.4" height="39.7"/>
			<polygon class="st5" points="254,767.3 250.6,767.3 230.8,787.2 254,806.9 257.8,806.9 234.3,787 			"/>
		</g>
		<g>
			<path class="st6" d="M288.2,768.8c-10.2,0-16.9,8-16.9,18.3c0,10.3,6.7,18.3,16.9,18.3s16.9-8,16.9-18.3
				C305.1,776.8,298.3,768.8,288.2,768.8z"/>
			<path class="st5" d="M288.2,766.6c-11.2,0-19.4,8.3-19.4,20.5c0,12.3,8.3,20.5,19.4,20.5s19.4-8.3,19.4-20.5
				C307.6,774.8,299.3,766.6,288.2,766.6z M288.2,805.4c-10.2,0-16.9-8-16.9-18.3c0-10.3,6.7-18.3,16.9-18.3s16.9,8,16.9,18.3
				C305.1,797.4,298.3,805.4,288.2,805.4z"/>
		</g>
	</g>
	<g>
		<path class="st6" d="M425.1,768.8c-10.2,0-16.9,8-16.9,18.3c0,10.3,6.7,18.3,16.9,18.3s16.9-8,16.9-18.3
			C442,776.8,435.2,768.8,425.1,768.8z"/>
		<path class="st6" d="M472.3,768.8c-10.6,0-16.7,8-16.7,18.3c0,10.3,5.9,18.3,16.5,18.3c10.7,0,16.5-8,16.5-18.3
			C488.6,776.8,482.9,768.8,472.3,768.8z"/>
		<path class="st6" d="M659.2,768.8c-10.2,0-16.9,8-16.9,18.3c0,10.3,6.7,18.3,16.9,18.3s16.9-8,16.9-18.3
			C676.1,776.8,669.4,768.8,659.2,768.8z"/>
		<path class="st5" d="M386.5,767.3c-6.3,13.6-11.3,23.8-16.7,36.8c-5.6-13.2-10.2-22.8-15.9-36.8h-3l-6.5,39.7h2.5
			c2.8-17.7,4.4-26.1,5.9-35.9c3.9,9.4,6.8,14.9,15.5,35.9h2.9c8.8-20,11.6-25.5,16.3-35.9c1.8,11.7,2.9,19.8,5.6,35.9h2.4
			l-5.9-39.7H386.5z"/>
		<path class="st5" d="M425.1,766.5c-11.2,0-19.4,8.3-19.4,20.5c0,12.3,8.3,20.5,19.4,20.5s19.4-8.3,19.4-20.5
			C444.5,774.8,436.3,766.5,425.1,766.5z M425.1,805.4c-10.2,0-16.9-8-16.9-18.3c0-10.3,6.7-18.3,16.9-18.3s16.9,8,16.9,18.3
			C442,797.4,435.2,805.4,425.1,805.4z"/>
		<path class="st5" d="M475.9,766.8c-15.7-1.9-17.5-5.9-17.5-9.8c0-3.9,2.9-7.1,13.4-7.1h13.6l0.9-2.2h-16c-8.3,0-14.3,2.9-14.3,10
			c0,4.8,3.9,8.2,9.8,9.7c-8.4,3.3-12.6,11.3-12.6,19.8c0,12.3,7.9,20.5,19,20.5s19-8.3,19-20.5C491.2,775,484.9,768.7,475.9,766.8z
			 M472.1,805.4c-10.6,0-16.5-8-16.5-18.3c0-10.3,6-18.3,16.7-18.3s16.3,8,16.3,18.3C488.6,797.4,482.8,805.4,472.1,805.4z"/>
		<polygon class="st5" points="531.7,773.1 506.8,797.1 506.8,767.3 504.4,767.3 504.4,806.9 506.8,806.9 506.8,800.3 531.7,776.3 
			531.7,806.9 534.1,806.9 534.1,767.3 531.7,767.3 		"/>
		<path class="st5" d="M553.4,768.6c0,21,0.2,36-7.7,36.1v2.2c9.3,0.6,10.2-11.6,10.2-36.6v-0.9h20.7v37.4h2.4v-39.7h-25.5V768.6z"
			/>
		<polygon class="st5" points="624.1,784.9 599.2,784.9 599.2,767.3 596.8,767.3 596.8,806.9 599.2,806.9 599.2,787.1 624.1,787.1 
			624.1,806.9 626.5,806.9 626.5,767.3 624.1,767.3 		"/>
		<path class="st5" d="M659.2,766.5c-11.2,0-19.4,8.3-19.4,20.5c0,12.3,8.3,20.5,19.4,20.5s19.4-8.3,19.4-20.5
			C678.6,774.8,670.4,766.5,659.2,766.5z M659.2,805.4c-10.2,0-16.9-8-16.9-18.3c0-10.3,6.7-18.3,16.9-18.3s16.9,8,16.9,18.3
			C676.1,797.4,669.4,805.4,659.2,805.4z"/>
		<path class="st5" d="M687.2,787.1c0,11,5.9,20.5,20.1,20.5c3.7,0,8.3-1.4,10.1-2.8v-2.4c-1.2,0.5-4.1,2.9-10.8,2.9
			c-10.6,0-17.1-7.5-17.1-18.3c0-10.8,6.6-18.3,17.6-18.3c4.4,0,8.5,1.4,10.2,2.4v-2.4c-0.8-0.7-5.7-2.2-10-2.2
			C695.1,766.5,687.2,774.8,687.2,787.1z"/>
		<polygon class="st5" points="720.8,769.6 736.7,769.6 736.7,806.9 739.1,806.9 739.1,769.6 755,769.6 755,767.3 720.8,767.3 		"/>
		<polygon class="st5" points="791.2,773.1 766.3,797.1 766.3,767.3 763.9,767.3 763.9,806.9 766.3,806.9 766.3,800.3 791.2,776.3 
			791.2,806.9 793.6,806.9 793.6,767.3 791.2,767.3 		"/>
	</g>
	<g>
		<path class="st6" d="M901.5,768.8c-10.2,0-16.9,8-16.9,18.3c0,10.3,6.7,18.3,16.9,18.3s16.9-8,16.9-18.3
			C918.4,776.8,911.7,768.8,901.5,768.8z"/>
		<path class="st6" d="M846.3,772.8c0,17.1-2.3,26.8-7.1,31.9h27.4v-35.2h-20.2V772.8z"/>
		<path class="st5" d="M868.9,767.3h-25v3.4c0,24.2-3.3,29.4-7.9,34h-4.8v14.5h2.2l0.4-12.3h39.4v12.3h2.2l0.4-11.8v-2.7h-7V767.3z
			 M866.5,804.7h-27.4c4.8-5.1,7.1-14.8,7.1-31.9v-3.3h20.2V804.7z"/>
		<path class="st5" d="M901.5,766.5c-11.2,0-19.4,8.3-19.4,20.5c0,12.3,8.3,20.5,19.4,20.5s19.4-8.3,19.4-20.5
			C920.9,774.8,912.7,766.5,901.5,766.5z M901.5,805.4c-10.2,0-16.9-8-16.9-18.3c0-10.3,6.7-18.3,16.9-18.3s16.9,8,16.9,18.3
			C918.4,797.4,911.7,805.4,901.5,805.4z"/>
	</g>
</g>
<g>
	<path class="st6" d="M1462.9,774.7c0-5.6-4.3-7.9-12.5-7.9h-8v16.3h9.1C1457.6,783.1,1462.9,780.5,1462.9,774.7z"/>
	<path class="st6" d="M1451.4,785.3h-9.1V802h8c11.6,0,15.9-3,15.9-8.8C1466.3,787.4,1462.1,785.3,1451.4,785.3z"/>
	<path class="st6" d="M1497.2,766.1c-10.9,0-16.3,9.6-16.3,18.2c0,9.5,4.7,18.2,16.1,18.2c10.6,0,16.1-10.2,16.1-18.2
		C1513.2,773,1506.4,766.1,1497.2,766.1z"/>
	<polygon class="st5" points="1224.2,770.4 1199.5,794.4 1199.5,764.6 1197.1,764.6 1197.1,804.2 1199.5,804.2 1199.5,797.6 
		1224.2,773.6 1224.2,804.2 1226.6,804.2 1226.6,764.6 1224.2,764.6 	"/>
	<path class="st5" d="M1239.7,784.4c0,11,5.9,20.5,20,20.5c3.7,0,8.2-1.4,10-2.8v-2.4c-1.2,0.5-4.1,2.9-10.7,2.9
		c-10.6,0-16.9-7.5-16.9-18.3c0-10.8,6.5-18.3,17.5-18.3c4.4,0,8.4,1.4,10.2,2.4v-2.4c-0.8-0.7-5.7-2.2-9.9-2.2
		C1247.5,763.8,1239.7,772.1,1239.7,784.4z"/>
	<polygon class="st5" points="1311.5,764.6 1308.2,764.6 1288.6,784.6 1311.6,804.2 1315.3,804.2 1292,784.3 	"/>
	<rect x="1282" y="764.6" class="st5" width="2.4" height="39.7"/>
	<path class="st5" d="M1339,800.5c-3.2-7.2-11.9-24.4-17.4-35.9h-3l19,38.7l-9,20.1h2.8l26.9-58.8h-2.8
		C1349.7,776.9,1341.2,795.7,1339,800.5z"/>
	<path class="st5" d="M1363.8,784.4c0,11,5.9,20.5,20,20.5c3.7,0,8.2-1.4,10-2.8v-2.4c-1.2,0.5-4.1,2.9-10.7,2.9
		c-10.6,0-16.9-7.5-16.9-18.3c0-10.8,6.5-18.3,17.5-18.3c4.4,0,8.4,1.4,10.2,2.4v-2.4c-0.8-0.7-5.7-2.2-9.9-2.2
		C1371.6,763.8,1363.8,772.1,1363.8,784.4z"/>
	<polygon class="st5" points="1397.2,766.9 1413,766.9 1413,804.2 1415.3,804.2 1415.3,766.9 1431.1,766.9 1431.1,764.6 
		1397.2,764.6 	"/>
	<path class="st5" d="M1459.2,783.7c5.2-1.9,6.5-6.3,6.5-9.4c0-5.7-3.8-9.7-15.1-9.7H1440v39.7h10.6c15.6,0,18.3-6,18.3-11.5
		C1468.8,789.5,1467.4,784.8,1459.2,783.7z M1442.3,766.8h8c8.3,0,12.5,2.3,12.5,7.9c0,5.8-5.3,8.4-11.5,8.4h-9.1V766.8z
		 M1450.4,802h-8v-16.7h9.1c10.7,0,14.9,2.1,14.9,7.9C1466.3,799,1461.9,802,1450.4,802z"/>
	<path class="st5" d="M1512.9,764.6l-0.1,8.3c-2.6-5.6-8.5-9-15.1-9c-12,0-19.3,9.5-19.3,20.5c0,11.7,6.4,20.5,18.3,20.5
		c8.9,0,14.3-5.9,16.1-10.8l0.1,10.1h2.3v-39.7H1512.9z M1497.1,802.6c-11.4,0-16.1-8.7-16.1-18.2c0-8.6,5.4-18.2,16.3-18.2
		c9.2,0,16,6.8,16,18.2C1513.2,792.5,1507.7,802.6,1497.1,802.6z"/>
</g>
<g>
	<path class="st7" d="M106.3,889c0-4.7-3.4-8.3-8.7-8.3c-7.3,0-9.2,5.8-9.2,8.8h-1.6c-0.3-2.1,1.3-10.4,10.9-10.4
		c6.3,0,10.3,4,10.3,10c0,8.7-12.7,19.3-17.4,24.3h20.5v1.6H86.5C91.8,909.7,106.3,897.5,106.3,889z"/>
	<path class="st7" d="M149.8,878.8c8.6,0,13.2,8.3,13.2,18.4s-4.6,18.4-13.2,18.4c-8.6,0-13.2-8.3-13.2-18.4
		S141.2,878.8,149.8,878.8z M149.8,914c7.6,0,11.4-8,11.4-16.7c0-8.8-3.9-16.7-11.4-16.7s-11.4,7.9-11.4,16.7
		C138.3,906,142.2,914,149.8,914z"/>
	<path class="st7" d="M208.5,889c0-4.7-3.4-8.3-8.7-8.3c-7.3,0-9.2,5.8-9.2,8.8h-1.6c-0.3-2.1,1.3-10.4,10.9-10.4
		c6.3,0,10.3,4,10.3,10c0,8.7-12.7,19.3-17.4,24.3h20.5v1.6h-24.6C194,909.7,208.5,897.5,208.5,889z"/>
	<path class="st7" d="M241.1,905.5c0,5.9,4.4,8.4,9.8,8.4c5.3,0,9.6-3.2,9.6-8.4c0-6.4-4.8-8.6-11.6-8.3l-3.1,0.1v-1.7l3.4-0.1
		c5.6-0.2,9.3-3.3,9.3-7.9c0-5.1-4.2-7.2-8.1-7.2c-5.9,0-8.8,3.4-8.8,7.5H240c0-6.8,6.1-9.1,10.3-9.1c5.1,0,9.9,2.6,9.9,8.8
		c0,4.1-2.4,7-6.3,8.4c5.1,0.6,8.3,4.5,8.3,9.2c0,5.8-4.4,10.3-11.9,10.3c-2,0-11.1-0.6-11.1-10.1H241.1z"/>
	<path class="st7" d="M289.2,899.8h10.4v1.6h-10.4V899.8z"/>
	<path class="st7" d="M333.4,881.1h-6.3v-1.6h7.9V915h-1.6V881.1z"/>
	<path class="st7" d="M366.9,899.8h10.4v1.6h-10.4V899.8z"/>
	<path class="st7" d="M417,899l15.3,16h-2.4c-7.1-7-9.4-10.4-17-17.5v-0.1h6.3c7.4,0,10-4.3,10-8.2c0-3.6-2.2-8.1-10-8.1h-10.3V915
		h-1.6v-35.5h12c8.4,0,11.7,5,11.7,9.6C430.7,893.9,427.6,899.6,417,899z"/>
	<path class="st7" d="M480.7,888c0-4.5-4.4-7.8-10.3-7.8c-5.4,0-9.4,3.1-9.4,7.4c0,12.7,23.4,1.8,23.4,17.9
		c0,5.4-4.9,10.1-12.4,10.1c-7.5,0-13.8-4.1-13.8-10.8h1.7c0,4.7,4.6,9.1,12,9.1c6.6,0,10.6-3.6,10.6-8.7c0-13.7-23.4-3.3-23.4-17.5
		c0-5.9,5.2-9.2,11.7-9.2c6.4,0,11.8,3.4,11.8,9.4H480.7z"/>
	<path class="st7" d="M523.1,878.8c8.6,0,13.2,8.3,13.2,18.4s-4.6,18.4-13.2,18.4c-8.6,0-13.2-8.3-13.2-18.4
		S514.4,878.8,523.1,878.8z M523.1,914c7.6,0,11.4-8,11.4-16.7c0-8.8-3.9-16.7-11.4-16.7s-11.4,7.9-11.4,16.7
		C511.6,906,515.5,914,523.1,914z"/>
	<path class="st7" d="M569.1,881.1h-6.3v-1.6h7.9V915h-1.6V881.1z"/>
	<path class="st7" d="M602.6,899.8H613v1.6h-10.4V899.8z"/>
	<path class="st7" d="M642.7,879.5h1.6l0.1,15.5v20h-1.6V879.5z M667.2,879.5l-15.8,17.1l19.1,18.4h-2.4l-19.2-18.2l15.9-17.3H667.2
		z"/>
	<path class="st7" d="M707.8,879.5h2.3l14.7,35.5h-1.9c-1.8-4.2-3.6-8.3-5.2-12.5h-18c-1.6,4.2-3.6,8.3-5.4,12.5h-1.9L707.8,879.5z
		 M716.9,900.8c-2.6-6.4-5.3-12.7-8-19.6h-0.1c-2.8,6.7-5.7,13.2-8.2,19.6H716.9z"/>
	<path class="st7" d="M755.8,881.1h-6.3v-1.6h7.9V915h-1.6V881.1z"/>
	<path class="st7" d="M808,889c0-4.7-3.4-8.3-8.7-8.3c-7.3,0-9.2,5.8-9.2,8.8h-1.6c-0.3-2.1,1.3-10.4,10.9-10.4
		c6.3,0,10.3,4,10.3,10c0,8.7-12.7,19.3-17.4,24.3h20.5v1.6h-24.6C793.5,909.7,808,897.5,808,889z"/>
	<path class="st7" d="M845.3,881.1h-6.3v-1.6h7.9V915h-1.6V881.1z"/>
	<path class="st7" d="M878.7,899.8h10.4v1.6h-10.4V899.8z"/>
	<path class="st7" d="M947.1,879.5L931.2,915h-2.3l-15.1-35.5h1.9c6.6,15.2,9.5,21.6,14.4,33.6h0.1c5.5-12.7,9-19.9,14.8-33.6H947.1
		z"/>
	<path class="st7" d="M973.6,879.5h18.7v1.6h-17.1v14.8h14.9v1.7h-14.9v15.7h17.6v1.6h-19.2V879.5z"/>
	<path class="st7" d="M1028.2,915v-33.9h-13.4v-1.6h28.5v1.6h-13.4V915H1028.2z"/>
	<path class="st7" d="M1066.7,899.8h10.4v1.6h-10.4V899.8z"/>
	<path class="st7" d="M1117.1,878.8c8.6,0,13.2,8.3,13.2,18.4s-4.6,18.4-13.2,18.4c-8.6,0-13.2-8.3-13.2-18.4
		S1108.5,878.8,1117.1,878.8z M1117.1,914c7.6,0,11.4-8,11.4-16.7c0-8.8-3.9-16.7-11.4-16.7s-11.4,7.9-11.4,16.7
		C1105.7,906,1109.6,914,1117.1,914z"/>
	<path class="st7" d="M1169.4,878.8c8.6,0,13.2,8.3,13.2,18.4s-4.6,18.4-13.2,18.4c-8.6,0-13.2-8.3-13.2-18.4
		S1160.8,878.8,1169.4,878.8z M1169.4,914c7.6,0,11.4-8,11.4-16.7c0-8.8-3.9-16.7-11.4-16.7s-11.4,7.9-11.4,16.7
		C1157.9,906,1161.8,914,1169.4,914z"/>
	<path class="st7" d="M1221.7,878.8c8.6,0,13.2,8.3,13.2,18.4s-4.6,18.4-13.2,18.4c-8.6,0-13.2-8.3-13.2-18.4
		S1213,878.8,1221.7,878.8z M1221.7,914c7.6,0,11.4-8,11.4-16.7c0-8.8-3.9-16.7-11.4-16.7s-11.4,7.9-11.4,16.7
		C1210.2,906,1214.1,914,1221.7,914z"/>
	<path class="st7" d="M1267.7,881.1h-6.3v-1.6h7.9V915h-1.6V881.1z"/>
	<path class="st7" d="M1307.2,881.1h-6.3v-1.6h7.9V915h-1.6V881.1z"/>
	<path class="st7" d="M1341.1,887.9c0-5.1,4.2-9.1,10.4-9.1c6.4,0,10.1,3.8,10.1,8.6c0,4.3-2.1,6.6-5.5,8.1c3.3,0.8,7.6,3.8,7.6,9.4
		c0,6.9-5.9,10.7-12.5,10.7c-6.7,0-11.8-3.8-11.8-10.7c0-5.3,4.3-8.4,6.9-9.3C1343.1,894.5,1341.1,891.9,1341.1,887.9z
		 M1361.9,905.2c0-5.2-4.1-8.7-10.4-8.7c-6.4,0-10.3,4-10.3,8.9c0,4.8,3.8,8.6,10.2,8.6C1357.7,914,1361.9,910.4,1361.9,905.2z
		 M1359.8,887.6c0-4.6-3.7-7.1-8.3-7.1c-4.9,0-8.7,2.9-8.7,7.5c0,4.6,3.8,7,8.4,7C1355.9,895,1359.8,892.4,1359.8,887.6z"/>
	<path class="st7" d="M1408.9,889c0-4.7-3.4-8.3-8.7-8.3c-7.3,0-9.2,5.8-9.2,8.8h-1.6c-0.3-2.1,1.3-10.4,10.9-10.4
		c6.3,0,10.3,4,10.3,10c0,8.7-12.7,19.3-17.4,24.3h20.5v1.6H1389C1394.4,909.7,1408.9,897.5,1408.9,889z"/>
	<path class="st7" d="M1438.4,904.7l19.8-25.2h2.4v25h4.9v1.6h-4.9v8.9h-1.7v-8.9h-20.5V904.7z M1458.9,904.5v-23.3
		c-4,5.1-11.2,14.6-18.3,23.3H1458.9z"/>
	<path class="st7" d="M1509.5,880.9h-20.8l0.1-1.4h23.4l-16.4,35.5h-1.7L1509.5,880.9z"/>
</g>
</svg>
