<?xml version="1.0" encoding="utf-8"?>
<!-- Generator: Adobe Illustrator 19.0.0, SVG Export Plug-In . SVG Version: 6.00 Build 0)  -->
<svg version="1.1" xmlns="http://www.w3.org/2000/svg" xmlns:xlink="http://www.w3.org/1999/xlink" x="0px" y="0px"
	 viewBox="0 0 1193 938.3" style="enable-background:new 0 0 1193 938.3;" xml:space="preserve">
<style type="text/css">
	.st0{fill:url(#XMLID_39_);}
</style>
<g id="Layer_1">
	<linearGradient id="XMLID_39_" gradientUnits="userSpaceOnUse" x1="224.1608" y1="-179.1878" x2="979.5992" y2="1129.2699">
		<stop  offset="0" style="stop-color:#F08262"/>
		<stop  offset="1" style="stop-color:#6FBC85"/>
	</linearGradient>
	<path id="XMLID_1_" class="st0" d="M191.4,677.8h-22.7l-28.6,75.6h22.1l5.4-16.2h24.8l5.4,16.2H220L191.4,677.8z M173.1,720.5
		l6.8-21.6h0.4l6.8,21.6H173.1z M820.1,0h-31.3l-38.2,100.8l2.4,3.6h26.8l7.5-22.4h34.3l7.5,22.4h30.6L820.1,0z M794.7,58.9
		l9.4-29.8h0.6l9.4,29.8H794.7z M118,233.1H69.2V206H185v-59.7H0.4v253.4H118c53.9,0,90.5-35.8,90.5-83.2S172,233.1,118,233.1z
		 M114.4,339.9H69.2v-47.1h45.2c14.5,0,25.3,10.9,25.3,23.5S128.9,339.9,114.4,339.9z M362.3,146.2h-114v253.4h68.8v-76h45.2
		c56.1,0,94.1-38,94.1-88.7S418.4,146.2,362.3,146.2z M358.7,262.1h-41.6v-54.3h41.6c16.3,0,29,12.7,29,27.1
		C387.7,249.4,375,262.1,358.7,262.1z M619.3,146.2h-76l-95.9,253.4h74.2l18.1-54.3h83.2l18.1,54.3h74.2L619.3,146.2z M557.8,289.2
		l22.8-72.4h1.4l22.8,72.4H557.8z M881.2,94l17.9-18.6c0.7,1,1.8,2.1,2.8,3c1.8,1.6,4.6,3,8.4,3c7.6,0,12.7-5.1,12.7-12.7V0h28.3
		v68.6c0,23.1-15.7,38.8-38.8,38.8c-10.9,0-18.5-3.3-23.7-6.7C885.8,98.7,883.3,96.5,881.2,94z M445.7,104.4H421V0h28.3v57.4
		L494.1,0h24.6v104.4h-28.3V47L445.7,104.4z M682.8,104.4h-28.3V0h28.3v40.3L717.1,0H750l-37.3,43.3l37.9,57.6l-1.4,3.6h-29.1
		L694,64.9l-11.2,12.7V104.4z M541.1,32.1V0h28.3v32.1c0,10.6,5.8,16.4,16.4,16.4c4.8,0,8.9-1,11.8-2.2c1.6-0.6,3.3-1.3,4.6-2.2V0
		h28.3v104.4h-28.3V69.4c-1.9,0.9-4,1.6-6.4,2.2c-4,1.2-9.5,2.2-16,2.2C556.8,73.8,541.1,58.3,541.1,32.1z M749.2,104.4l1.4-3.6
		l2.4,3.6H749.2z M1130.3,69.4L1094.5,0h31.3l19.1,43.3h0.6L1161.6,0h31.3l-36.5,77.6c-8.4,17.3-19.2,28.3-38,28.3
		c-4.2,0-7.5-0.4-9.8-1c-1.3-0.4-2.5-0.7-3.6-1.2V78.3c0.7,0.3,1.5,0.6,2.5,0.7c1.8,0.4,3.9,0.7,6.4,0.7c9,0,13.4-4.3,15.7-8.9
		L1130.3,69.4z M1055.7,104.4h-81.3V0h79.8v25.4h-51.5v14.9h39.5v23.9h-39.5v14.9h53V104.4z M330.8,104.4h-28.3V0h28.3v38h38V0h28.3
		v104.4h-28.3V64.9h-38V104.4z M183.1,104.4h-81.3V0h79.8v25.4h-51.5v14.9h39.5v23.9h-39.5v14.9h53V104.4z M187.6,104.4L221.2,50
		L190.6,0h31.3l17.6,31.3h0.6L257.7,0H289l-30.6,50l33.6,54.4h-31.3l-20.6-35.8h-0.6l-20.6,35.8H187.6z M29.5,25.4H0.4V0h86.5v25.4
		H57.8v79.1H29.5V25.4z M844,879.5h-6.4v-3.6h15.3V868h-24.3v33.4H844c7.1,0,11.9-4.7,11.9-11C855.9,884.2,851.1,879.5,844,879.5z
		 M846.9,890.4c0,0.2,0,0.4-0.1,0.6s-0.1,0.4-0.2,0.6c-0.5,1.1-1.7,1.9-3.1,1.9h-6l0,0v-6.2l0,0h6c1.2,0,2.2,0.6,2.8,1.4
		c0.1,0.2,0.2,0.3,0.3,0.5C846.8,889.6,846.9,890,846.9,890.4L846.9,890.4L846.9,890.4z M877.9,867.1c-10.7,0-18.6,7.9-18.6,17.6
		c0,9.8,7.9,17.6,18.6,17.6c10.7,0,18.6-7.9,18.6-17.6C896.5,875,888.6,867.1,877.9,867.1z M885.6,890c-0.3,0.5-0.7,1-1.1,1.4
		c-0.7,0.7-1.5,1.3-2.4,1.7c-1.3,0.6-2.7,1-4.2,1c-1.6,0-3.2-0.4-4.5-1.1c-1.6-0.8-2.9-2.1-3.7-3.7c-0.7-1.3-1.1-2.8-1.1-4.5l0,0
		l0,0c0-5.2,4.1-9.3,9.3-9.3c3.4,0,6.4,1.8,8,4.5c0.8,1.4,1.3,3,1.3,4.8C887.2,886.7,886.6,888.5,885.6,890z M759.9,867.1
		c-10.7,0-18.6,7.9-18.6,17.6c0,9.8,7.9,17.6,18.6,17.6s18.6-7.9,18.6-17.6C778.5,875,770.5,867.1,759.9,867.1z M769.2,884.7
		c0,1.6-0.4,3.2-1.1,4.5c-0.9,1.6-2.1,2.9-3.7,3.7c-1.3,0.7-2.8,1.1-4.5,1.1c-1.6,0-3.2-0.4-4.5-1.1c-1.6-0.8-2.9-2.1-3.7-3.7
		c-0.7-1.3-1.1-2.8-1.1-4.5l0,0l0,0c0-5.2,4.1-9.3,9.3-9.3C765.1,875.4,769.2,879.5,769.2,884.7L769.2,884.7L769.2,884.7z
		 M953.8,476.8l-19.1,0l0,48.7l19.1,0c15,0,26-11.2,26-24.4C979.7,488,968.8,476.8,953.8,476.8z M953.3,512.5l-3.5,0l0-22.3l3.5,0
		c6.5,0,10.9,4.5,10.9,11.2C964.2,508,959.8,512.5,953.3,512.5z M705.1,475.4c-15.6,0-27,11.5-27,25.8c0,14.3,11.4,25.8,27,25.8
		c15.6,0,27-11.5,27-25.8S720.8,475.4,705.1,475.4z M705.1,513.1c-6.5,0-11.5-5.1-11.5-11.8c0-6.7,5-11.8,11.5-11.8
		c6.7,0,11.7,5.1,11.7,11.8S711.6,513.1,705.1,513.1z M697.8,559.2c-15.6,0-26.9,11.6-26.9,25.9c0,14.3,11.2,25.6,26.9,25.6
		s27-11.5,27-25.8S713.4,559.2,697.8,559.2z M697.8,596.9c-6.5,0-11.5-5.1-11.5-11.9c0-6.7,5-11.8,11.5-11.8
		c6.5,0,11.5,5.1,11.5,11.8C709.3,591.8,704.3,596.9,697.8,596.9z M1083,905.2l-45.2,31.9l44.4-31.4L1083,905.2z M917.2,868h-15
		v33.4h9.1v-10h6c7.4,0,12.4-5,12.4-11.7C929.6,873,924.6,868,917.2,868z M919.5,882.2c-0.3,0.3-0.6,0.5-1,0.7
		c-0.1,0.1-0.3,0.1-0.4,0.2c-0.4,0.1-0.9,0.2-1.3,0.2h-5.5l0,0v-7.2l0,0h5.5c2.1,0,3.8,1.7,3.8,3.6
		C920.6,880.7,920.1,881.6,919.5,882.2z M856.1,560.6l-17.5,0l-17.3,48.9l16.4,0l2.7-9.5l14,0l2.7,9.5l16.4,0L856.1,560.6z
		 M843.5,589.3l3.8-13.7h0.3l3.8,13.7L843.5,589.3z M657.7,592.1c1.4-0.9,2.6-1.9,3.8-3.3c1.8-2.2,3.8-5.6,3.8-10.7
		c0-9.8-7.4-17.5-18.1-17.5l-23.5,0l0,49l15.3,0l0-14l5.2,0l6.8,14l16,0L657.7,592.1z M645.5,582.3l-6.5,0l0-8.4l6.5,0
		c2.7,0,4.4,1.7,4.4,4.2C649.9,580.6,648.3,582.3,645.5,582.3z M754.9,560.6l-22.5,0l0,48.9l15.3,0l0-13.2l7.1,0
		c10.9,0,18.4-7.8,18.4-17.8S765.9,560.6,754.9,560.6z M753.2,582.9L753.2,582.9l-5.5,0l0-9l5.5,0c2.7,0,4.7,2,4.7,4.5
		S756,582.9,753.2,582.9z M1138.2,502.1c-1.7-1.1-3.3-1.7-5.3-2.2l0-0.3c1.5-0.5,2.9-1.1,4.1-1.9c2.1-1.4,4.1-3.9,4.1-8.4
		c0-6.4-6.2-12.6-17.5-12.6l-22.2,0l0,48.9l23.7,0c12.3,0,18.4-6.4,18.4-13.7C1143.5,506.9,1140.9,503.8,1138.2,502.1z
		 M1120.9,488.6c3,0,4.4,1.4,4.4,3.6c0,2.2-1.4,3.6-4.4,3.6v-0.2l-4.1,0l0-7L1120.9,488.6z M1122.8,513.9l-6.2,0l0-8.4l6.2,0
		c3,0,4.7,1.7,4.7,4.2C1127.6,512.1,1125.9,513.9,1122.8,513.9z M1112,559.2c-15.6,0-27,11.5-27,25.8s11.4,25.8,27,25.8
		c15.6,0,27-11.5,27-25.8C1139,570.6,1127.6,559.2,1112,559.2z M1112,596.9c-6.5,0-11.5-5.1-11.7-11.9c0-6.7,5.2-11.8,11.7-11.8
		c6.5,0,11.5,5.1,11.5,11.8C1123.5,591.7,1118.5,596.9,1112,596.9z M1052.8,476.8l-19.1,0l0,48.7l19.1,0c15,0,26-11.2,26-24.4
		C1078.8,488,1067.9,476.8,1052.8,476.8z M1052.5,512.5l-3.5,0l0-22.3l3.5,0c6.5,0,10.9,4.5,10.9,11.2
		C1063.4,508,1059,512.5,1052.5,512.5z M561.2,573.5l-22.5,0l0,5.9l17,0l0,11.2l-17,0l0,5.9l23.2,0l0,12.9l-38.6,0l0-48.7h-0.2l38,0
		L561.2,573.5z M392.9,574.9l-12.6,0l0,34.6l-15.3,0l0-34.6h-0.2l-12.6,0l0-14.3l40.7,0L392.9,574.9z M910.9,525.7l-17.8-23.4
		l0,23.4l-15.3,0l0-48.9l13.4,0l17.8,23.4l0-23.4l15.3,0l0,48.9L910.9,525.7z M735.1,508l0-13.6H735l38,0l0,13.7H735.1z M982,698.3
		c0-0.2,0-0.4,0.1-0.7c0-0.3,0.1-0.6,0.2-0.8c0.1-0.3,0.2-0.6,0.3-0.8c0.2-0.5,0.5-0.9,0.8-1.3c0.3-0.4,0.6-0.7,1-1
		c0,0,0.1-0.1,0.1-0.1c0.1-0.1,0.2-0.2,0.4-0.2c0.1,0,0.1-0.1,0.2-0.1c0.1,0,0.2-0.1,0.3-0.1c0.1,0,0.2,0,0.3,0c0,0,0,0,0.1,0
		c0.1,0,0.3,0.1,0.7,0.2c0.5,0.2,1,0.6,1.7,1.1c1.7,1.2,3.7,2.8,6.1,4.4c1.6,1,3.2,1.9,5,2.7c0.3,0.1,0.5,0.2,0.8,0.3
		c0.8,0.3,1.7,0.6,2.5,0.7c1.6,0.3,3.2,0.3,4.8,0.1c0.4-0.1,0.8-0.2,1.1-0.3c0.3-0.1,0.7-0.2,1-0.4c0.8-0.4,1.7-1,2.6-1.7
		c5.9-5.3,7-21.3,7.2-24.4l-5.8-0.3c-0.4,6.8-2.2,17.7-5.3,20.4c-0.5,0.5-0.9,0.7-1.1,0.8c-0.1,0.1-0.2,0.1-0.4,0.1
		c-0.1,0-0.2,0.1-0.4,0.1c-0.9,0.2-1.8,0.1-2.6,0c-0.5-0.1-1-0.3-1.5-0.5c-0.2-0.1-0.3-0.1-0.5-0.2c-1.4-0.6-2.8-1.4-4.2-2.3
		c-2.3-1.5-4.3-3-5.9-4.2c-1-0.8-1.9-1.3-2.8-1.7c-0.8-0.4-1.6-0.6-2.4-0.7c-0.2,0-0.5,0-0.7,0c-0.8,0-1.5,0.1-2.2,0.4
		c-0.3,0.1-0.6,0.2-0.9,0.4c-0.2,0.1-0.3,0.2-0.5,0.3c-0.3,0.2-0.7,0.4-1,0.7c-0.1,0.1-0.2,0.2-0.3,0.2c-0.7,0.6-1.4,1.3-1.9,2.1
		c-0.6,0.8-1,1.6-1.4,2.4c-0.2,0.5-0.4,1-0.5,1.5c-0.1,0.5-0.3,1-0.3,1.5c-0.1,0.4-0.1,0.8-0.1,1.1c0,0.2,0,0.5,0,0.7
		c0,0.3,0,0.5,0,0.8c0,0.4,0,0.7,0,1.1c0,0.5,0.1,1.1,0.2,1.7c0.1,0.5,0.2,1,0.3,1.6c0.1,0.5,0.2,1,0.3,1.5l0.2,0.9
		c0.2,0.8,0.3,1.5,0.5,2.3c0.2,0.8,0.3,1.5,0.3,2.1c0,0.3,0,0.7,0,1c0,0.2,0,0.4,0,0.6c0,0.2,0,0.3-0.1,0.5c0,0.2-0.1,0.4-0.1,0.6
		c0,0.1,0,0.1-0.1,0.2c0,0.1-0.1,0.3-0.2,0.4c-0.2,0.3-0.4,0.7-0.6,1c-0.1,0.2-0.3,0.3-0.5,0.5c-0.2,0.1-0.3,0.3-0.5,0.4
		c-0.2,0.1-0.4,0.3-0.7,0.4c-0.3,0.2-0.7,0.3-1.1,0.4c-1.7,0.5-5,0.7-11-0.9c-0.8-0.2-1.6-0.4-2.3-0.5c-1.1-0.2-2.1-0.2-3.2-0.2
		c-0.6,0-1.2,0.1-1.8,0.2c-2.7,0.6-5.3,2.4-7.4,5.2c-0.8,1-1.4,2.2-1.9,3.5c-0.5,1.3-0.8,2.7-0.9,4.2c-0.1,0.5-0.1,1.1-0.1,1.7
		l5.8-0.1c0-0.4,0-0.7,0-1.1c0.1-1,0.3-2,0.6-2.8c0.3-0.8,0.6-1.5,1.1-2c0.9-1.2,2.3-2.6,4-3c0.3-0.1,0.6-0.1,0.9-0.1
		c0.6,0,1.3,0,1.9,0.1c0.6,0.1,1.2,0.2,1.8,0.4c5.8,1.5,10.5,1.8,14,0.9c0.7-0.2,1.4-0.4,2-0.7c0.5-0.3,1.1-0.6,1.5-0.9
		c0.4-0.3,0.8-0.6,1.2-1c0.3-0.3,0.6-0.6,0.9-1c0.6-0.7,1-1.4,1.4-2.2c0.1-0.3,0.3-0.6,0.4-0.9c0.1-0.2,0.1-0.3,0.2-0.5
		c0.1-0.4,0.2-0.8,0.3-1.2c0.1-0.3,0.1-0.7,0.2-1c0-0.4,0.1-0.7,0.1-1.1c0-0.5,0-1-0.1-1.6c-0.1-0.9-0.2-1.8-0.4-2.8
		c-0.2-0.8-0.4-1.6-0.5-2.4l-0.2-0.9c-0.1-0.4-0.2-0.9-0.3-1.3c-0.1-0.5-0.2-0.9-0.2-1.3c-0.1-0.4-0.1-0.9-0.1-1.3
		c0-0.3,0-0.5,0-0.8c0-0.2,0-0.3,0-0.5C981.9,698.5,981.9,698.4,982,698.3z M1017,675.6l-5.8,23.1L1017,675.6z M816.7,490.5l-22.5,0
		l0,7.3l17.2,0l0,12.6l-17.2,0l0,15.4l-15.3,0l0-48.9h-0.2l38,0L816.7,490.5z M671.1,522.4c-3.5,2.5-8.8,4.7-15.8,4.7
		c-15.6,0-27-11.5-27-25.8s11.4-25.8,27-25.8c7,0,12.2,2.3,15.6,4.8c2,1.4,3.8,2.9,5.2,4.7l-9.3,10.1c-0.8-1.1-1.8-2-2.9-2.8
		c-2-1.4-4.9-2.8-8.4-2.8c-6.8,0-12,5.1-12,11.8c0,6.7,5.2,11.8,12,11.8c3.5,0,6.5-1.4,8.5-2.8c1.2-0.8,2.3-1.7,3.2-2.8l9.1,10.1
		C675,519.3,673.2,521,671.1,522.4z M876.3,749.6v77.8h26.2v-77.8h28.4v77.8h26.2v-77.8h28.4v104.7H847.9V749.6H876.3z M919.7,211.4
		H811.1v188.2h-68.8V146.2h177.3V211.4z M973.1,610.8c-13.4,0-22.5-9.5-22.5-22l0-28.2l15.3,0l0,28.2c0,4.2,3.3,7.6,7.1,7.6
		c3.8,0,7.1-3.4,7.1-7.6l0-28.2l15.3,0l0,28.2C995.6,601.4,986.5,610.8,973.1,610.8z M454.9,560.6L454.9,560.6l-0.2,0L454.9,560.6z
		 M868.1,505c0,12.6-9.1,22-22.5,22c-13.4,0-22.5-9.5-22.5-22l0-28.2l15.3,0l0,28.2c0,4.2,3.3,7.6,7.1,7.6c3.8,0,7.1-3.4,7.1-7.6
		l0-28.2l15.3,0L868.1,505z M428.9,591.6l-14.3,0l0,17.8l-15.3,0l0-48.9l15.3,0l0,17.1l14.3,0l0-17.1l15.3,0l0,48.9l-15.3,0
		L428.9,591.6z M492.7,573.5l-22.5,0l0,5.9l17,0l0,11.2l-17,0l0,5.9l23.2,0l0,12.9l-38.6,0l0-48.7l37.8,0L492.7,573.5z M780.6,560.6
		l38,0l0,12.9l-22.5,0l0,5.9l17,0l0,11.2l-17,0l0,5.9l23.2,0l0,12.9l-38.6,0l0-48.7H780.6z M893.3,586l0,23.4l-15.3,0l0-48.9l13.4,0
		l17.8,23.4l0-23.4l15.3,0l0,48.9l-13.4,0L893.3,586z M1018.7,560.6l17.8,23.4l0-23.4l15.3,0l0,48.9l-13.4,0l-17.8-23.4l0,23.4
		l-15.3,0l0-48.9L1018.7,560.6z M1159.9,560.6l17.8,23.4l0-23.4l15.3,0l0,48.9l-13.4,0l-17.8-23.4l0,23.4l-15.3,0l0-48.9
		L1159.9,560.6z M1025.2,489.7l-22.5,0l0,5.9l17.2,0l0,11.2l-17.2,0l0,5.9l23.2,0l0,12.9l-38.6,0l0-48.7h-0.2l38,0L1025.2,489.7z
		 M1133.3,146.2h59.7v253.4h-68.8V260.2l-108.6,139.3h-59.7V146.2h68.8v139.3L1133.3,146.2z M1175.9,476.9l16.7,0l-17,31.3l0,17.4
		l-15.3,0l0-17.4l0,0l-17.2-31.3l16.7,0l7.9,18.5l0.3,0L1175.9,476.9z M1062.2,560.6l15.3,0l0,48.9l-15.3,0L1062.2,560.6z
		 M812.8,868h8.1v33.4h-9.1v-19.8l-9.3,11.7l-9.3-11.7v19.8h-9.1V868h8.1l10.3,12.9L812.8,868z M728.5,847.3c-7.6,5.2-19,10-34,10
		c-33.5,0-58.3-24.7-58.3-55.4c0-30.7,24.8-55.4,58.3-55.4c15,0,26,4.9,33.7,10.2c4.3,3,8.1,6.3,11.2,10l-17.2,19.4
		c-2.2-2.5-4.8-4.8-7.6-6.7c-4.9-3.4-11.7-6.7-20-6.7c-18.7,0-32.5,16.6-28.5,36c2.2,10.3,12.7,20.2,23.1,21.9
		c10.9,1.8,19.4-2.1,25.7-6.3c3-1.9,5.7-4.2,8.1-6.7l17.2,19.4C736.9,840.9,733,844.3,728.5,847.3z M775.4,854.4v-79.3h-29.2v-25.4
		H833v25.4h-29.2v79.3H775.4z M309.9,432L0,432l0,211l309.9,0L309.9,432z M92.7,498.7l2.6-8.2l2.6,8.2l8.4,0l-6.7,4.9l2.6,8.3
		l-6.8-5.1l-6.8,5.1l2.6-8.2l-6.8-5L92.7,498.7z M75.2,533.8l8.4,0l2.5-8.1l2.5,8.1l8.4,0l-6.8,5l2.6,8.2l-6.8-5l-6.8,5l2.6-8.3
		L75.2,533.8z M102.1,582l-6.8-5l-6.8,5l2.5-8l-6.8-5l8.4,0l2.5-8.1l2.5,8.1l8.4,0l-6.6,4.9L102.1,582z M117.9,473l2.6-8.2l2.6,8.2
		l8.4,0l-6.6,4.9l2.5,8.1l-6.8-5l-6.8,5l2.5-8l-6.8-5L117.9,473z M127.3,607.8l-6.8-5l-6.8,5l2.5-8l-6.8-5l8.4,0l2.5-8.1l2.5,8.1
		l8.4,0l-6.6,4.9L127.3,607.8z M152.4,463.5l2.5-8.1l2.5,8.1l8.4,0l-6.8,5l2.5,8l-6.7-4.9l-6.7,4.9l2.5-8.1l-6.6-4.9L152.4,463.5z
		 M161.7,617.4l-6.7-5l-6.7,5l2.6-8.3l-6.7-4.9l8.2,0l2.6-8.2l2.6,8.2l8.4,0l-6.8,5L161.7,617.4z M186.9,473l2.6-8.2l2.6,8.2l8.4,0
		l-6.8,5l2.5,8l-6.8-5l-6.8,5l2.5-8.1l-6.6-4.9L186.9,473z M196.1,607.8l-6.8-5l-6.8,5l2.5-8.1l-6.6-4.9l8.4,0l2.5-8.1l2.5,8.1
		l8.4,0l-6.8,5L196.1,607.8z M212.1,498.7l2.6-8.2l2.6,8.2l8.2,0l-6.7,4.9l2.6,8.3l-6.7-5l-6.7,5l2.6-8.2l-6.8-5L212.1,498.7z
		 M221.4,582l-6.7-4.9L208,582l2.5-8l-6.8-5l8.4,0l2.5-8.1l2.5,8.1l8.3,0l-6.6,4.9L221.4,582z M230.6,547l-6.8-5l-6.8,5l2.6-8.2
		l-6.8-5l8.4,0l2.5-8.1l2.5,8.1l8.4,0l-6.7,4.9L230.6,547z M733.9,889.7l5.5,6.2c-1,1.2-2.3,2.3-3.7,3.2c-2.4,1.7-6.1,3.2-10.8,3.2
		c-10.7,0-18.6-7.9-18.6-17.6c0-9.8,7.9-17.6,18.6-17.6c4.8,0,8.3,1.6,10.7,3.2c1.4,1,2.6,2,3.6,3.2l-5.5,6.2
		c-0.7-0.8-1.5-1.5-2.4-2.1c-1.6-1.1-3.7-2.1-6.4-2.1c-5.2,0-9.3,4.1-9.3,9.3c0,5.2,4.1,9.3,9.3,9.3c2.7,0,4.8-1,6.5-2.1
		C732.2,891.3,733.1,890.5,733.9,889.7z M569.1,560.6L569.1,560.6l-0.2,0L569.1,560.6z M1100.4,761.4c8.9,10.1,16.1,22.8,17.4,36
		c1.1,11.5-1.6,23.7-6.4,34.5c-1,2.2-2,4.3-3.2,6.3c-9.2,16.2-23.2,24.4-32,28.3l4.9-11.9c2.2-1.3,4.6-3.1,7.2-5.4
		c5.8-5.3,11.8-12.6,15.9-22c3-7,5-14.7,5.3-22.3c0.1-2.2,0-4.4-0.2-6.6c-0.1-1.3-0.3-2.6-0.6-3.8c-1.4-7.1-4.5-13.9-8.5-20.2
		c-1.9-3-4.1-5.8-6.4-8.4c-3.1-3.5-6.6-6.5-10.1-9.2c-8.1-6.1-16-8.6-21.3-9.7l3.1-7.6C1073.6,741.8,1088.3,747.5,1100.4,761.4z
		 M1112.7,840.8l30.8-7.1c0,0,2.6,1.9,1.6,6.1c-1.1,5.2-3.7,12.6-8,19.1c-3.9,6.1-9.4,11.1-13.2,14.2c-3.1,2.4-5.3,1.8-5.3,1.8
		L1112.7,840.8z M1193,803.9c0,74.2-60.2,134.4-134.4,134.4c-7.1,0-14-0.5-20.7-1.6l44.4-31.4l0.7-0.5l0.2-0.1
		c46.7-10.4,81.6-52.1,81.6-102c0-48.6-33.2-89.4-78.1-101.1l10.3-26.5C1152.5,691.7,1193,743.1,1193,803.9z M614.1,588.8
		c0,12.6-9.1,22-22.5,22c-13.4,0-22.5-9.5-22.5-22l0-28.2l15.2,0l0,28.2c0,4.2,3.3,7.6,7.1,7.6c3.8,0,7.1-3.4,7.1-7.6l0-28.2l15.5,0
		L614.1,588.8z M1019.4,911c3.2,5.5,4,21.4,4.1,23.2l-5.8,0.3c-0.3-6.3-1.5-17.4-3.3-20.6c-0.2-0.4-0.4-0.7-0.6-0.8
		c-0.1,0-0.1,0.1-0.2,0.1c-0.8,0.5-1.7,1.1-2.5,1.8c-3,2.6-6,5.1-9.1,7.1c-1.1,0.7-2.1,1.2-3.2,1.6c-1.2,0.4-2.5,0.7-3.7,0.9
		c-0.6,0.1-1.1,0.1-1.7,0.1c-1.5,0-3-0.1-4.3-0.4c-1.4-0.3-2.6-0.8-3.7-1.4c-3-1.8-5.1-4.1-6-6.8c-0.2-0.6-0.3-1.2-0.5-1.7
		c-0.2-1-0.3-2.1-0.2-3.2c0-0.8,0.1-1.6,0.2-2.4c0.9-6.2,0.2-9.4-0.4-11c-0.2-0.4-0.3-0.7-0.5-1c-0.2-0.2-0.3-0.5-0.5-0.6
		c-0.2-0.2-0.3-0.3-0.5-0.5c-0.2-0.1-0.4-0.3-0.5-0.4c-0.3-0.2-0.7-0.4-1-0.5c-0.1,0-0.3-0.1-0.4-0.1c-0.1,0-0.1,0-0.2,0
		c-0.2,0-0.4-0.1-0.6-0.1c-0.2,0-0.3,0-0.5,0c-0.2,0-0.4,0-0.6,0c-0.3,0-0.7,0.1-1,0.2c-0.6,0.1-1.3,0.3-2.1,0.6
		c-0.7,0.2-1.4,0.5-2.2,0.8l-0.9,0.3c-0.5,0.2-1,0.3-1.4,0.5c-0.5,0.2-1,0.3-1.5,0.4c-0.6,0.1-1.1,0.3-1.7,0.4
		c-0.4,0.1-0.7,0.1-1.1,0.2c-0.3,0-0.5,0.1-0.8,0.1c-0.2,0-0.5,0-0.7,0c-0.4,0-0.8,0-1.1,0c-0.5,0-1-0.1-1.5-0.2
		c-0.5-0.1-1.1-0.2-1.6-0.4c-0.9-0.3-1.8-0.6-2.6-1.1c-0.8-0.5-1.6-1-2.3-1.7c-0.1-0.1-0.2-0.2-0.3-0.3c-0.3-0.3-0.5-0.6-0.8-0.9
		c-0.1-0.2-0.2-0.3-0.3-0.5c-0.2-0.3-0.4-0.6-0.5-0.9c-0.3-0.7-0.5-1.4-0.6-2.2c0-0.2,0-0.5,0-0.7c0-0.8,0.1-1.6,0.4-2.4
		c0.3-0.9,0.7-1.9,1.4-3c1-1.7,2.2-3.9,3.5-6.3c0.7-1.4,1.3-2.9,1.8-4.4c0.1-0.2,0.1-0.4,0.2-0.5c0.1-0.5,0.2-1.1,0.3-1.6
		c0.1-0.9,0-1.7-0.3-2.6c0-0.1-0.1-0.2-0.1-0.3c-0.1-0.1-0.1-0.2-0.2-0.4l4.9-3c0.2,0.3,0.4,0.6,0.5,0.9c0.2,0.4,0.3,0.7,0.4,1.1
		c0.5,1.6,0.6,3.2,0.5,4.8c-0.1,0.8-0.2,1.7-0.5,2.6c-0.1,0.3-0.1,0.5-0.2,0.8c-0.6,1.8-1.3,3.6-2.1,5.2c-1.3,2.6-2.6,4.8-3.6,6.6
		c-0.4,0.7-0.7,1.3-0.9,1.8c-0.1,0.4-0.1,0.6-0.1,0.7c0,0,0,0,0,0.1c0,0.1,0,0.2,0.1,0.3c0,0.1,0.1,0.2,0.2,0.3
		c0,0.1,0.1,0.1,0.1,0.2c0.1,0.1,0.2,0.2,0.3,0.3c0,0,0.1,0.1,0.1,0.1c0.3,0.3,0.7,0.6,1.1,0.8c0.5,0.3,0.9,0.5,1.4,0.6
		c0.3,0.1,0.6,0.2,0.9,0.2c0.3,0,0.6,0.1,0.8,0.1c0.2,0,0.4,0,0.7,0c0.1,0,0.3,0,0.4,0c0.2,0,0.3,0,0.5-0.1c0.2,0,0.5-0.1,0.8-0.1
		c0.4-0.1,0.8-0.2,1.2-0.3c0.4-0.1,0.8-0.2,1.3-0.4c0.4-0.1,0.8-0.3,1.2-0.4l0.9-0.3c0.8-0.3,1.5-0.5,2.3-0.8c1-0.3,1.9-0.6,2.7-0.7
		c0.5-0.1,1-0.2,1.6-0.2c0.4,0,0.7-0.1,1.1-0.1c0.4,0,0.7,0,1,0c0.4,0,0.8,0.1,1.2,0.2c0.2,0,0.3,0.1,0.5,0.1c0.3,0.1,0.6,0.2,1,0.3
		c0.8,0.3,1.6,0.7,2.3,1.1c0.4,0.2,0.7,0.5,1.1,0.8c0.4,0.3,0.7,0.7,1.1,1c0.4,0.4,0.7,0.9,1.1,1.4c0.4,0.6,0.7,1.2,1,1.9
		c1.4,3.3,1.6,8,0.8,14c-0.1,0.6-0.1,1.2-0.2,1.8c0,0.7,0,1.3,0.1,1.9c0.1,0.3,0.1,0.6,0.2,0.9c0.6,1.7,2.2,2.9,3.4,3.7
		c0.6,0.3,1.3,0.6,2.1,0.8c0.8,0.2,1.8,0.3,2.8,0.3c0.3,0,0.7,0,1.1-0.1c0.8-0.1,1.6-0.3,2.5-0.6c0.6-0.2,1.3-0.6,2-1
		c2.8-1.8,5.6-4.1,8.4-6.6c1.1-1,2.3-1.8,3.5-2.5c0.5-0.3,1-0.5,1.5-0.7C1013.6,907.1,1016.8,906.6,1019.4,911z M1069.4,905.7
		l-37.8,26.7l-13.4-45.4l17.6,10.2l26.9-87.1l-62.1-12.1l33.8-122.6h49.5l-40.5,104.9l56.2,13.4l-29.3,71.3l-4.5,10.9l-11.2,27.2
		L1069.4,905.7z M1140.1,755.8c1.6,3.6,0.5,5.5,0.5,5.5l-34.5-2.1l0.2-31.6c0,0,2.4-2.1,6.3-0.1c4.8,2.3,11.4,6.6,16.8,12.2
		C1134.5,744.9,1138.1,751.4,1140.1,755.8z M122.4,725.3c2.5-1.2,4.6-2.8,6.5-4.7c3.3-3.3,6.5-8.6,6.5-16.8
		c0-14.6-11.4-25.9-27.5-25.9H72.2v75.6h20.5v-23.7H104l12.4,23.7H138L122.4,725.3z M106.7,711.3h-14v-15.1h14
		c4.9,0,8.1,3.2,8.1,7.6C114.8,708.1,111.6,711.3,106.7,711.3z M356.6,753.4v-44.8l-21,26.4l-21-26.4v44.8H294v-75.6h18.3l23.2,29.1
		l23.2-29.1h18.3v75.6H356.6z M59.2,753.4H0.4v-75.6h57.7v18.3H20.9V707h28.6v17.3H20.9V735h38.3V753.4z M282.1,731.3
		c0,13-11.2,24.3-29.7,24.3c-10.4,0-17.7-3.1-22.8-6.5c-2.9-1.8-5.4-4-7.4-6.5l11.9-13c1.3,1.5,2.8,2.9,4.4,4.1
		c2.9,2.1,6.9,4,11.8,4c6.5,0,9.7-3.1,9.7-6.5c0-10.3-35.6-5.9-35.6-32.4c0-11.9,10.8-23.2,28.6-23.2c9.2,0,15.8,2.7,20.1,5.4
		c2.5,1.6,4.6,3.3,6.4,5.4l-11.9,13c-1-1.1-2.1-2.1-3.3-2.9c-2.2-1.6-5.3-3-9.1-3c-6,0-8.6,2.7-8.6,5.4
		C246.5,709.1,282.1,704.8,282.1,731.3z M511.5,731.3c0-10.3-35.6-5.9-35.6-32.4c0-11.9,10.8-23.2,28.6-23.2
		c9.2,0,15.8,2.7,20.1,5.4c2.5,1.6,4.6,3.3,6.4,5.4l-11.9,13c-1-1.1-2.1-2.1-3.3-2.9c-2.2-1.6-5.3-3-9.1-3c-6,0-8.6,2.7-8.6,5.4
		c0,10.3,35.6,5.9,35.6,32.4c0,13-11.2,24.3-29.7,24.3c-10.4,0-17.7-3.1-22.8-6.5c-2.9-1.8-5.4-4-7.4-6.5l11.9-13
		c1.3,1.5,2.8,2.9,4.4,4.1c2.9,2.1,6.9,4,11.8,4C508.2,737.7,511.5,734.6,511.5,731.3z M573.5,713.4h16.7v16.7h-16.7v16.7h-16.2
		v-16.7h-16.7v-16.7h16.7v-16.7h16.2V713.4z M428.3,755.5c-20.4,0-34.5-14-34.5-33.5v-44.3h20.5v44.3c0,8.6,5.9,14.6,14,14.6
		c8.1,0,14-5.9,14-14.6v-44.3h20.5v44.3C462.9,741.5,448.7,755.5,428.3,755.5z M114.6,894.7v39.2H1.5c0-74,69.6-76.2,69.6-103.4
		c0-7.6-6.5-14.1-15.2-14.1c-7.6,0-12.8,3.7-16.1,7.2c-2,2-3.5,4.4-4.6,7L0.4,814.2c3-6.7,7.2-13.1,12.6-18.5
		c9.1-9.1,23.7-18.5,46.1-18.5c32.4,0,55.5,23.1,55.5,50c0,39.6-41.6,46.3-56.6,67.5H114.6z M201.6,777.3
		c-35.9,0-67.5,31.6-67.5,80.5c0,49,31.6,80.5,67.5,80.5c35.9,0,67.5-31.6,67.5-80.5C269.1,808.8,237.5,777.3,201.6,777.3z
		 M201.6,900.2c-13.1,0-26.1-13.1-26.1-42.4c0-29.4,13.1-42.4,26.1-42.4c13.1,0,26.1,13.1,26.1,42.4
		C227.7,887.1,214.7,900.2,201.6,900.2z M398.5,894.7v39.2H285.4c0-74,69.6-76.2,69.6-103.4c0-7.6-6.5-14.1-15.2-14.1
		c-7.6,0-12.8,3.7-16.1,7.2c-2,2-3.5,4.4-4.6,7l-34.8-16.3c3-6.7,7.2-13.1,12.6-18.5c9.1-9.1,23.7-18.5,46.1-18.5
		c32.4,0,55.5,23.1,55.5,50c0,39.6-41.6,46.3-56.6,67.5H398.5z M517.1,873v-91.4h-45.7l-64.2,85.9V910h68.5v23.9h41.3V910h16.3v-37
		H517.1z M475.8,873h-31.6l31.6-42.4V873z M567.2,896.9c12.2,0,20.7,8.5,20.7,19.6c0,11.1-8.5,19.6-20.7,19.6
		c-12.2,0-20.7-8.5-20.7-19.6C546.5,905.4,555,896.9,567.2,896.9z"/>
</g>
<g id="Layer_2">
</g>
</svg>
